<?xml version="1.0" encoding="utf-8" standalone="no"?>
<!DOCTYPE svg PUBLIC "-//W3C//DTD SVG 1.1//EN"
  "http://www.w3.org/Graphics/SVG/1.1/DTD/svg11.dtd">
<!-- Created with matplotlib (https://matplotlib.org/) -->
<svg height="277.314375pt" version="1.1" viewBox="0 0 931.8 277.314375" width="931.8pt" xmlns="http://www.w3.org/2000/svg" xmlns:xlink="http://www.w3.org/1999/xlink">
 <metadata>
  <rdf:RDF xmlns:cc="http://creativecommons.org/ns#" xmlns:dc="http://purl.org/dc/elements/1.1/" xmlns:rdf="http://www.w3.org/1999/02/22-rdf-syntax-ns#">
   <cc:Work>
    <dc:type rdf:resource="http://purl.org/dc/dcmitype/StillImage"/>
    <dc:date>2021-12-21T17:39:30.163491</dc:date>
    <dc:format>image/svg+xml</dc:format>
    <dc:creator>
     <cc:Agent>
      <dc:title>Matplotlib v3.3.2, https://matplotlib.org/</dc:title>
     </cc:Agent>
    </dc:creator>
   </cc:Work>
  </rdf:RDF>
 </metadata>
 <defs>
  <style type="text/css">*{stroke-linecap:butt;stroke-linejoin:round;}</style>
 </defs>
 <g id="figure_1">
  <g id="patch_1">
   <path d="M 0 277.314375 
L 931.8 277.314375 
L 931.8 0 
L 0 0 
z
" style="fill:none;"/>
  </g>
  <g id="axes_1">
   <g id="patch_2">
    <path d="M 31.8 239.758125 
L 437.618182 239.758125 
L 437.618182 22.318125 
L 31.8 22.318125 
z
" style="fill:#ffffff;"/>
   </g>
   <g id="matplotlib.axis_1">
    <g id="xtick_1">
     <g id="line2d_1">
      <defs>
       <path d="M 0 0 
L 0 3.5 
" id="me451bd4977" style="stroke:#000000;stroke-width:0.8;"/>
      </defs>
      <g>
       <use style="stroke:#000000;stroke-width:0.8;" x="50.246281" xlink:href="#me451bd4977" y="239.758125"/>
      </g>
     </g>
     <g id="text_1">
      <!-- 0 -->
      <g transform="translate(47.065031 254.356562)scale(0.1 -0.1)">
       <defs>
        <path d="M 31.78125 66.40625 
Q 24.171875 66.40625 20.328125 58.90625 
Q 16.5 51.421875 16.5 36.375 
Q 16.5 21.390625 20.328125 13.890625 
Q 24.171875 6.390625 31.78125 6.390625 
Q 39.453125 6.390625 43.28125 13.890625 
Q 47.125 21.390625 47.125 36.375 
Q 47.125 51.421875 43.28125 58.90625 
Q 39.453125 66.40625 31.78125 66.40625 
z
M 31.78125 74.21875 
Q 44.046875 74.21875 50.515625 64.515625 
Q 56.984375 54.828125 56.984375 36.375 
Q 56.984375 17.96875 50.515625 8.265625 
Q 44.046875 -1.421875 31.78125 -1.421875 
Q 19.53125 -1.421875 13.0625 8.265625 
Q 6.59375 17.96875 6.59375 36.375 
Q 6.59375 54.828125 13.0625 64.515625 
Q 19.53125 74.21875 31.78125 74.21875 
z
" id="DejaVuSans-48"/>
       </defs>
       <use xlink:href="#DejaVuSans-48"/>
      </g>
     </g>
    </g>
    <g id="xtick_2">
     <g id="line2d_2">
      <g>
       <use style="stroke:#000000;stroke-width:0.8;" x="96.361983" xlink:href="#me451bd4977" y="239.758125"/>
      </g>
     </g>
     <g id="text_2">
      <!-- 2 -->
      <g transform="translate(93.180733 254.356562)scale(0.1 -0.1)">
       <defs>
        <path d="M 19.1875 8.296875 
L 53.609375 8.296875 
L 53.609375 0 
L 7.328125 0 
L 7.328125 8.296875 
Q 12.9375 14.109375 22.625 23.890625 
Q 32.328125 33.6875 34.8125 36.53125 
Q 39.546875 41.84375 41.421875 45.53125 
Q 43.3125 49.21875 43.3125 52.78125 
Q 43.3125 58.59375 39.234375 62.25 
Q 35.15625 65.921875 28.609375 65.921875 
Q 23.96875 65.921875 18.8125 64.3125 
Q 13.671875 62.703125 7.8125 59.421875 
L 7.8125 69.390625 
Q 13.765625 71.78125 18.9375 73 
Q 24.125 74.21875 28.421875 74.21875 
Q 39.75 74.21875 46.484375 68.546875 
Q 53.21875 62.890625 53.21875 53.421875 
Q 53.21875 48.921875 51.53125 44.890625 
Q 49.859375 40.875 45.40625 35.40625 
Q 44.1875 33.984375 37.640625 27.21875 
Q 31.109375 20.453125 19.1875 8.296875 
z
" id="DejaVuSans-50"/>
       </defs>
       <use xlink:href="#DejaVuSans-50"/>
      </g>
     </g>
    </g>
    <g id="xtick_3">
     <g id="line2d_3">
      <g>
       <use style="stroke:#000000;stroke-width:0.8;" x="142.477686" xlink:href="#me451bd4977" y="239.758125"/>
      </g>
     </g>
     <g id="text_3">
      <!-- 4 -->
      <g transform="translate(139.296436 254.356562)scale(0.1 -0.1)">
       <defs>
        <path d="M 37.796875 64.3125 
L 12.890625 25.390625 
L 37.796875 25.390625 
z
M 35.203125 72.90625 
L 47.609375 72.90625 
L 47.609375 25.390625 
L 58.015625 25.390625 
L 58.015625 17.1875 
L 47.609375 17.1875 
L 47.609375 0 
L 37.796875 0 
L 37.796875 17.1875 
L 4.890625 17.1875 
L 4.890625 26.703125 
z
" id="DejaVuSans-52"/>
       </defs>
       <use xlink:href="#DejaVuSans-52"/>
      </g>
     </g>
    </g>
    <g id="xtick_4">
     <g id="line2d_4">
      <g>
       <use style="stroke:#000000;stroke-width:0.8;" x="188.593388" xlink:href="#me451bd4977" y="239.758125"/>
      </g>
     </g>
     <g id="text_4">
      <!-- 6 -->
      <g transform="translate(185.412138 254.356562)scale(0.1 -0.1)">
       <defs>
        <path d="M 33.015625 40.375 
Q 26.375 40.375 22.484375 35.828125 
Q 18.609375 31.296875 18.609375 23.390625 
Q 18.609375 15.53125 22.484375 10.953125 
Q 26.375 6.390625 33.015625 6.390625 
Q 39.65625 6.390625 43.53125 10.953125 
Q 47.40625 15.53125 47.40625 23.390625 
Q 47.40625 31.296875 43.53125 35.828125 
Q 39.65625 40.375 33.015625 40.375 
z
M 52.59375 71.296875 
L 52.59375 62.3125 
Q 48.875 64.0625 45.09375 64.984375 
Q 41.3125 65.921875 37.59375 65.921875 
Q 27.828125 65.921875 22.671875 59.328125 
Q 17.53125 52.734375 16.796875 39.40625 
Q 19.671875 43.65625 24.015625 45.921875 
Q 28.375 48.1875 33.59375 48.1875 
Q 44.578125 48.1875 50.953125 41.515625 
Q 57.328125 34.859375 57.328125 23.390625 
Q 57.328125 12.15625 50.6875 5.359375 
Q 44.046875 -1.421875 33.015625 -1.421875 
Q 20.359375 -1.421875 13.671875 8.265625 
Q 6.984375 17.96875 6.984375 36.375 
Q 6.984375 53.65625 15.1875 63.9375 
Q 23.390625 74.21875 37.203125 74.21875 
Q 40.921875 74.21875 44.703125 73.484375 
Q 48.484375 72.75 52.59375 71.296875 
z
" id="DejaVuSans-54"/>
       </defs>
       <use xlink:href="#DejaVuSans-54"/>
      </g>
     </g>
    </g>
    <g id="xtick_5">
     <g id="line2d_5">
      <g>
       <use style="stroke:#000000;stroke-width:0.8;" x="234.709091" xlink:href="#me451bd4977" y="239.758125"/>
      </g>
     </g>
     <g id="text_5">
      <!-- 8 -->
      <g transform="translate(231.527841 254.356562)scale(0.1 -0.1)">
       <defs>
        <path d="M 31.78125 34.625 
Q 24.75 34.625 20.71875 30.859375 
Q 16.703125 27.09375 16.703125 20.515625 
Q 16.703125 13.921875 20.71875 10.15625 
Q 24.75 6.390625 31.78125 6.390625 
Q 38.8125 6.390625 42.859375 10.171875 
Q 46.921875 13.96875 46.921875 20.515625 
Q 46.921875 27.09375 42.890625 30.859375 
Q 38.875 34.625 31.78125 34.625 
z
M 21.921875 38.8125 
Q 15.578125 40.375 12.03125 44.71875 
Q 8.5 49.078125 8.5 55.328125 
Q 8.5 64.0625 14.71875 69.140625 
Q 20.953125 74.21875 31.78125 74.21875 
Q 42.671875 74.21875 48.875 69.140625 
Q 55.078125 64.0625 55.078125 55.328125 
Q 55.078125 49.078125 51.53125 44.71875 
Q 48 40.375 41.703125 38.8125 
Q 48.828125 37.15625 52.796875 32.3125 
Q 56.78125 27.484375 56.78125 20.515625 
Q 56.78125 9.90625 50.3125 4.234375 
Q 43.84375 -1.421875 31.78125 -1.421875 
Q 19.734375 -1.421875 13.25 4.234375 
Q 6.78125 9.90625 6.78125 20.515625 
Q 6.78125 27.484375 10.78125 32.3125 
Q 14.796875 37.15625 21.921875 38.8125 
z
M 18.3125 54.390625 
Q 18.3125 48.734375 21.84375 45.5625 
Q 25.390625 42.390625 31.78125 42.390625 
Q 38.140625 42.390625 41.71875 45.5625 
Q 45.3125 48.734375 45.3125 54.390625 
Q 45.3125 60.0625 41.71875 63.234375 
Q 38.140625 66.40625 31.78125 66.40625 
Q 25.390625 66.40625 21.84375 63.234375 
Q 18.3125 60.0625 18.3125 54.390625 
z
" id="DejaVuSans-56"/>
       </defs>
       <use xlink:href="#DejaVuSans-56"/>
      </g>
     </g>
    </g>
    <g id="xtick_6">
     <g id="line2d_6">
      <g>
       <use style="stroke:#000000;stroke-width:0.8;" x="280.824793" xlink:href="#me451bd4977" y="239.758125"/>
      </g>
     </g>
     <g id="text_6">
      <!-- 10 -->
      <g transform="translate(274.462293 254.356562)scale(0.1 -0.1)">
       <defs>
        <path d="M 12.40625 8.296875 
L 28.515625 8.296875 
L 28.515625 63.921875 
L 10.984375 60.40625 
L 10.984375 69.390625 
L 28.421875 72.90625 
L 38.28125 72.90625 
L 38.28125 8.296875 
L 54.390625 8.296875 
L 54.390625 0 
L 12.40625 0 
z
" id="DejaVuSans-49"/>
       </defs>
       <use xlink:href="#DejaVuSans-49"/>
       <use x="63.623047" xlink:href="#DejaVuSans-48"/>
      </g>
     </g>
    </g>
    <g id="xtick_7">
     <g id="line2d_7">
      <g>
       <use style="stroke:#000000;stroke-width:0.8;" x="326.940496" xlink:href="#me451bd4977" y="239.758125"/>
      </g>
     </g>
     <g id="text_7">
      <!-- 12 -->
      <g transform="translate(320.577996 254.356562)scale(0.1 -0.1)">
       <use xlink:href="#DejaVuSans-49"/>
       <use x="63.623047" xlink:href="#DejaVuSans-50"/>
      </g>
     </g>
    </g>
    <g id="xtick_8">
     <g id="line2d_8">
      <g>
       <use style="stroke:#000000;stroke-width:0.8;" x="373.056198" xlink:href="#me451bd4977" y="239.758125"/>
      </g>
     </g>
     <g id="text_8">
      <!-- 14 -->
      <g transform="translate(366.693698 254.356562)scale(0.1 -0.1)">
       <use xlink:href="#DejaVuSans-49"/>
       <use x="63.623047" xlink:href="#DejaVuSans-52"/>
      </g>
     </g>
    </g>
    <g id="xtick_9">
     <g id="line2d_9">
      <g>
       <use style="stroke:#000000;stroke-width:0.8;" x="419.171901" xlink:href="#me451bd4977" y="239.758125"/>
      </g>
     </g>
     <g id="text_9">
      <!-- 16 -->
      <g transform="translate(412.809401 254.356562)scale(0.1 -0.1)">
       <use xlink:href="#DejaVuSans-49"/>
       <use x="63.623047" xlink:href="#DejaVuSans-54"/>
      </g>
     </g>
    </g>
    <g id="text_10">
     <!-- residual branch -->
     <g transform="translate(195.930185 268.034687)scale(0.1 -0.1)">
      <defs>
       <path d="M 41.109375 46.296875 
Q 39.59375 47.171875 37.8125 47.578125 
Q 36.03125 48 33.890625 48 
Q 26.265625 48 22.1875 43.046875 
Q 18.109375 38.09375 18.109375 28.8125 
L 18.109375 0 
L 9.078125 0 
L 9.078125 54.6875 
L 18.109375 54.6875 
L 18.109375 46.1875 
Q 20.953125 51.171875 25.484375 53.578125 
Q 30.03125 56 36.53125 56 
Q 37.453125 56 38.578125 55.875 
Q 39.703125 55.765625 41.0625 55.515625 
z
" id="DejaVuSans-114"/>
       <path d="M 56.203125 29.59375 
L 56.203125 25.203125 
L 14.890625 25.203125 
Q 15.484375 15.921875 20.484375 11.0625 
Q 25.484375 6.203125 34.421875 6.203125 
Q 39.59375 6.203125 44.453125 7.46875 
Q 49.3125 8.734375 54.109375 11.28125 
L 54.109375 2.78125 
Q 49.265625 0.734375 44.1875 -0.34375 
Q 39.109375 -1.421875 33.890625 -1.421875 
Q 20.796875 -1.421875 13.15625 6.1875 
Q 5.515625 13.8125 5.515625 26.8125 
Q 5.515625 40.234375 12.765625 48.109375 
Q 20.015625 56 32.328125 56 
Q 43.359375 56 49.78125 48.890625 
Q 56.203125 41.796875 56.203125 29.59375 
z
M 47.21875 32.234375 
Q 47.125 39.59375 43.09375 43.984375 
Q 39.0625 48.390625 32.421875 48.390625 
Q 24.90625 48.390625 20.390625 44.140625 
Q 15.875 39.890625 15.1875 32.171875 
z
" id="DejaVuSans-101"/>
       <path d="M 44.28125 53.078125 
L 44.28125 44.578125 
Q 40.484375 46.53125 36.375 47.5 
Q 32.28125 48.484375 27.875 48.484375 
Q 21.1875 48.484375 17.84375 46.4375 
Q 14.5 44.390625 14.5 40.28125 
Q 14.5 37.15625 16.890625 35.375 
Q 19.28125 33.59375 26.515625 31.984375 
L 29.59375 31.296875 
Q 39.15625 29.25 43.1875 25.515625 
Q 47.21875 21.78125 47.21875 15.09375 
Q 47.21875 7.46875 41.1875 3.015625 
Q 35.15625 -1.421875 24.609375 -1.421875 
Q 20.21875 -1.421875 15.453125 -0.5625 
Q 10.6875 0.296875 5.421875 2 
L 5.421875 11.28125 
Q 10.40625 8.6875 15.234375 7.390625 
Q 20.0625 6.109375 24.8125 6.109375 
Q 31.15625 6.109375 34.5625 8.28125 
Q 37.984375 10.453125 37.984375 14.40625 
Q 37.984375 18.0625 35.515625 20.015625 
Q 33.0625 21.96875 24.703125 23.78125 
L 21.578125 24.515625 
Q 13.234375 26.265625 9.515625 29.90625 
Q 5.8125 33.546875 5.8125 39.890625 
Q 5.8125 47.609375 11.28125 51.796875 
Q 16.75 56 26.8125 56 
Q 31.78125 56 36.171875 55.265625 
Q 40.578125 54.546875 44.28125 53.078125 
z
" id="DejaVuSans-115"/>
       <path d="M 9.421875 54.6875 
L 18.40625 54.6875 
L 18.40625 0 
L 9.421875 0 
z
M 9.421875 75.984375 
L 18.40625 75.984375 
L 18.40625 64.59375 
L 9.421875 64.59375 
z
" id="DejaVuSans-105"/>
       <path d="M 45.40625 46.390625 
L 45.40625 75.984375 
L 54.390625 75.984375 
L 54.390625 0 
L 45.40625 0 
L 45.40625 8.203125 
Q 42.578125 3.328125 38.25 0.953125 
Q 33.9375 -1.421875 27.875 -1.421875 
Q 17.96875 -1.421875 11.734375 6.484375 
Q 5.515625 14.40625 5.515625 27.296875 
Q 5.515625 40.1875 11.734375 48.09375 
Q 17.96875 56 27.875 56 
Q 33.9375 56 38.25 53.625 
Q 42.578125 51.265625 45.40625 46.390625 
z
M 14.796875 27.296875 
Q 14.796875 17.390625 18.875 11.75 
Q 22.953125 6.109375 30.078125 6.109375 
Q 37.203125 6.109375 41.296875 11.75 
Q 45.40625 17.390625 45.40625 27.296875 
Q 45.40625 37.203125 41.296875 42.84375 
Q 37.203125 48.484375 30.078125 48.484375 
Q 22.953125 48.484375 18.875 42.84375 
Q 14.796875 37.203125 14.796875 27.296875 
z
" id="DejaVuSans-100"/>
       <path d="M 8.5 21.578125 
L 8.5 54.6875 
L 17.484375 54.6875 
L 17.484375 21.921875 
Q 17.484375 14.15625 20.5 10.265625 
Q 23.53125 6.390625 29.59375 6.390625 
Q 36.859375 6.390625 41.078125 11.03125 
Q 45.3125 15.671875 45.3125 23.6875 
L 45.3125 54.6875 
L 54.296875 54.6875 
L 54.296875 0 
L 45.3125 0 
L 45.3125 8.40625 
Q 42.046875 3.421875 37.71875 1 
Q 33.40625 -1.421875 27.6875 -1.421875 
Q 18.265625 -1.421875 13.375 4.4375 
Q 8.5 10.296875 8.5 21.578125 
z
M 31.109375 56 
z
" id="DejaVuSans-117"/>
       <path d="M 34.28125 27.484375 
Q 23.390625 27.484375 19.1875 25 
Q 14.984375 22.515625 14.984375 16.5 
Q 14.984375 11.71875 18.140625 8.90625 
Q 21.296875 6.109375 26.703125 6.109375 
Q 34.1875 6.109375 38.703125 11.40625 
Q 43.21875 16.703125 43.21875 25.484375 
L 43.21875 27.484375 
z
M 52.203125 31.203125 
L 52.203125 0 
L 43.21875 0 
L 43.21875 8.296875 
Q 40.140625 3.328125 35.546875 0.953125 
Q 30.953125 -1.421875 24.3125 -1.421875 
Q 15.921875 -1.421875 10.953125 3.296875 
Q 6 8.015625 6 15.921875 
Q 6 25.140625 12.171875 29.828125 
Q 18.359375 34.515625 30.609375 34.515625 
L 43.21875 34.515625 
L 43.21875 35.40625 
Q 43.21875 41.609375 39.140625 45 
Q 35.0625 48.390625 27.6875 48.390625 
Q 23 48.390625 18.546875 47.265625 
Q 14.109375 46.140625 10.015625 43.890625 
L 10.015625 52.203125 
Q 14.9375 54.109375 19.578125 55.046875 
Q 24.21875 56 28.609375 56 
Q 40.484375 56 46.34375 49.84375 
Q 52.203125 43.703125 52.203125 31.203125 
z
" id="DejaVuSans-97"/>
       <path d="M 9.421875 75.984375 
L 18.40625 75.984375 
L 18.40625 0 
L 9.421875 0 
z
" id="DejaVuSans-108"/>
       <path id="DejaVuSans-32"/>
       <path d="M 48.6875 27.296875 
Q 48.6875 37.203125 44.609375 42.84375 
Q 40.53125 48.484375 33.40625 48.484375 
Q 26.265625 48.484375 22.1875 42.84375 
Q 18.109375 37.203125 18.109375 27.296875 
Q 18.109375 17.390625 22.1875 11.75 
Q 26.265625 6.109375 33.40625 6.109375 
Q 40.53125 6.109375 44.609375 11.75 
Q 48.6875 17.390625 48.6875 27.296875 
z
M 18.109375 46.390625 
Q 20.953125 51.265625 25.265625 53.625 
Q 29.59375 56 35.59375 56 
Q 45.5625 56 51.78125 48.09375 
Q 58.015625 40.1875 58.015625 27.296875 
Q 58.015625 14.40625 51.78125 6.484375 
Q 45.5625 -1.421875 35.59375 -1.421875 
Q 29.59375 -1.421875 25.265625 0.953125 
Q 20.953125 3.328125 18.109375 8.203125 
L 18.109375 0 
L 9.078125 0 
L 9.078125 75.984375 
L 18.109375 75.984375 
z
" id="DejaVuSans-98"/>
       <path d="M 54.890625 33.015625 
L 54.890625 0 
L 45.90625 0 
L 45.90625 32.71875 
Q 45.90625 40.484375 42.875 44.328125 
Q 39.84375 48.1875 33.796875 48.1875 
Q 26.515625 48.1875 22.3125 43.546875 
Q 18.109375 38.921875 18.109375 30.90625 
L 18.109375 0 
L 9.078125 0 
L 9.078125 54.6875 
L 18.109375 54.6875 
L 18.109375 46.1875 
Q 21.34375 51.125 25.703125 53.5625 
Q 30.078125 56 35.796875 56 
Q 45.21875 56 50.046875 50.171875 
Q 54.890625 44.34375 54.890625 33.015625 
z
" id="DejaVuSans-110"/>
       <path d="M 48.78125 52.59375 
L 48.78125 44.1875 
Q 44.96875 46.296875 41.140625 47.34375 
Q 37.3125 48.390625 33.40625 48.390625 
Q 24.65625 48.390625 19.8125 42.84375 
Q 14.984375 37.3125 14.984375 27.296875 
Q 14.984375 17.28125 19.8125 11.734375 
Q 24.65625 6.203125 33.40625 6.203125 
Q 37.3125 6.203125 41.140625 7.25 
Q 44.96875 8.296875 48.78125 10.40625 
L 48.78125 2.09375 
Q 45.015625 0.34375 40.984375 -0.53125 
Q 36.96875 -1.421875 32.421875 -1.421875 
Q 20.0625 -1.421875 12.78125 6.34375 
Q 5.515625 14.109375 5.515625 27.296875 
Q 5.515625 40.671875 12.859375 48.328125 
Q 20.21875 56 33.015625 56 
Q 37.15625 56 41.109375 55.140625 
Q 45.0625 54.296875 48.78125 52.59375 
z
" id="DejaVuSans-99"/>
       <path d="M 54.890625 33.015625 
L 54.890625 0 
L 45.90625 0 
L 45.90625 32.71875 
Q 45.90625 40.484375 42.875 44.328125 
Q 39.84375 48.1875 33.796875 48.1875 
Q 26.515625 48.1875 22.3125 43.546875 
Q 18.109375 38.921875 18.109375 30.90625 
L 18.109375 0 
L 9.078125 0 
L 9.078125 75.984375 
L 18.109375 75.984375 
L 18.109375 46.1875 
Q 21.34375 51.125 25.703125 53.5625 
Q 30.078125 56 35.796875 56 
Q 45.21875 56 50.046875 50.171875 
Q 54.890625 44.34375 54.890625 33.015625 
z
" id="DejaVuSans-104"/>
      </defs>
      <use xlink:href="#DejaVuSans-114"/>
      <use x="38.863281" xlink:href="#DejaVuSans-101"/>
      <use x="100.386719" xlink:href="#DejaVuSans-115"/>
      <use x="152.486328" xlink:href="#DejaVuSans-105"/>
      <use x="180.269531" xlink:href="#DejaVuSans-100"/>
      <use x="243.746094" xlink:href="#DejaVuSans-117"/>
      <use x="307.125" xlink:href="#DejaVuSans-97"/>
      <use x="368.404297" xlink:href="#DejaVuSans-108"/>
      <use x="396.1875" xlink:href="#DejaVuSans-32"/>
      <use x="427.974609" xlink:href="#DejaVuSans-98"/>
      <use x="491.451172" xlink:href="#DejaVuSans-114"/>
      <use x="532.564453" xlink:href="#DejaVuSans-97"/>
      <use x="593.84375" xlink:href="#DejaVuSans-110"/>
      <use x="657.222656" xlink:href="#DejaVuSans-99"/>
      <use x="712.203125" xlink:href="#DejaVuSans-104"/>
     </g>
    </g>
   </g>
   <g id="matplotlib.axis_2">
    <g id="ytick_1">
     <g id="line2d_10">
      <defs>
       <path d="M 0 0 
L -3.5 0 
" id="m6949d40225" style="stroke:#000000;stroke-width:0.8;"/>
      </defs>
      <g>
       <use style="stroke:#000000;stroke-width:0.8;" x="31.8" xlink:href="#m6949d40225" y="215.005257"/>
      </g>
     </g>
     <g id="text_11">
      <!-- $\mathdefault{10^{0}}$ -->
      <g transform="translate(7.2 218.804476)scale(0.1 -0.1)">
       <use transform="translate(0 0.765625)" xlink:href="#DejaVuSans-49"/>
       <use transform="translate(63.623047 0.765625)" xlink:href="#DejaVuSans-48"/>
       <use transform="translate(128.203125 39.046875)scale(0.7)" xlink:href="#DejaVuSans-48"/>
      </g>
     </g>
    </g>
    <g id="ytick_2">
     <g id="line2d_11">
      <g>
       <use style="stroke:#000000;stroke-width:0.8;" x="31.8" xlink:href="#m6949d40225" y="181.939524"/>
      </g>
     </g>
     <g id="text_12">
      <!-- $\mathdefault{10^{1}}$ -->
      <g transform="translate(7.2 185.738743)scale(0.1 -0.1)">
       <use transform="translate(0 0.684375)" xlink:href="#DejaVuSans-49"/>
       <use transform="translate(63.623047 0.684375)" xlink:href="#DejaVuSans-48"/>
       <use transform="translate(128.203125 38.965625)scale(0.7)" xlink:href="#DejaVuSans-49"/>
      </g>
     </g>
    </g>
    <g id="ytick_3">
     <g id="line2d_12">
      <g>
       <use style="stroke:#000000;stroke-width:0.8;" x="31.8" xlink:href="#m6949d40225" y="148.873791"/>
      </g>
     </g>
     <g id="text_13">
      <!-- $\mathdefault{10^{2}}$ -->
      <g transform="translate(7.2 152.67301)scale(0.1 -0.1)">
       <use transform="translate(0 0.765625)" xlink:href="#DejaVuSans-49"/>
       <use transform="translate(63.623047 0.765625)" xlink:href="#DejaVuSans-48"/>
       <use transform="translate(128.203125 39.046875)scale(0.7)" xlink:href="#DejaVuSans-50"/>
      </g>
     </g>
    </g>
    <g id="ytick_4">
     <g id="line2d_13">
      <g>
       <use style="stroke:#000000;stroke-width:0.8;" x="31.8" xlink:href="#m6949d40225" y="115.808058"/>
      </g>
     </g>
     <g id="text_14">
      <!-- $\mathdefault{10^{3}}$ -->
      <g transform="translate(7.2 119.607277)scale(0.1 -0.1)">
       <defs>
        <path d="M 40.578125 39.3125 
Q 47.65625 37.796875 51.625 33 
Q 55.609375 28.21875 55.609375 21.1875 
Q 55.609375 10.40625 48.1875 4.484375 
Q 40.765625 -1.421875 27.09375 -1.421875 
Q 22.515625 -1.421875 17.65625 -0.515625 
Q 12.796875 0.390625 7.625 2.203125 
L 7.625 11.71875 
Q 11.71875 9.328125 16.59375 8.109375 
Q 21.484375 6.890625 26.8125 6.890625 
Q 36.078125 6.890625 40.9375 10.546875 
Q 45.796875 14.203125 45.796875 21.1875 
Q 45.796875 27.640625 41.28125 31.265625 
Q 36.765625 34.90625 28.71875 34.90625 
L 20.21875 34.90625 
L 20.21875 43.015625 
L 29.109375 43.015625 
Q 36.375 43.015625 40.234375 45.921875 
Q 44.09375 48.828125 44.09375 54.296875 
Q 44.09375 59.90625 40.109375 62.90625 
Q 36.140625 65.921875 28.71875 65.921875 
Q 24.65625 65.921875 20.015625 65.03125 
Q 15.375 64.15625 9.8125 62.3125 
L 9.8125 71.09375 
Q 15.4375 72.65625 20.34375 73.4375 
Q 25.25 74.21875 29.59375 74.21875 
Q 40.828125 74.21875 47.359375 69.109375 
Q 53.90625 64.015625 53.90625 55.328125 
Q 53.90625 49.265625 50.4375 45.09375 
Q 46.96875 40.921875 40.578125 39.3125 
z
" id="DejaVuSans-51"/>
       </defs>
       <use transform="translate(0 0.765625)" xlink:href="#DejaVuSans-49"/>
       <use transform="translate(63.623047 0.765625)" xlink:href="#DejaVuSans-48"/>
       <use transform="translate(128.203125 39.046875)scale(0.7)" xlink:href="#DejaVuSans-51"/>
      </g>
     </g>
    </g>
    <g id="ytick_5">
     <g id="line2d_14">
      <g>
       <use style="stroke:#000000;stroke-width:0.8;" x="31.8" xlink:href="#m6949d40225" y="82.742325"/>
      </g>
     </g>
     <g id="text_15">
      <!-- $\mathdefault{10^{4}}$ -->
      <g transform="translate(7.2 86.541543)scale(0.1 -0.1)">
       <use transform="translate(0 0.684375)" xlink:href="#DejaVuSans-49"/>
       <use transform="translate(63.623047 0.684375)" xlink:href="#DejaVuSans-48"/>
       <use transform="translate(128.203125 38.965625)scale(0.7)" xlink:href="#DejaVuSans-52"/>
      </g>
     </g>
    </g>
    <g id="ytick_6">
     <g id="line2d_15">
      <g>
       <use style="stroke:#000000;stroke-width:0.8;" x="31.8" xlink:href="#m6949d40225" y="49.676592"/>
      </g>
     </g>
     <g id="text_16">
      <!-- $\mathdefault{10^{5}}$ -->
      <g transform="translate(7.2 53.47581)scale(0.1 -0.1)">
       <defs>
        <path d="M 10.796875 72.90625 
L 49.515625 72.90625 
L 49.515625 64.59375 
L 19.828125 64.59375 
L 19.828125 46.734375 
Q 21.96875 47.46875 24.109375 47.828125 
Q 26.265625 48.1875 28.421875 48.1875 
Q 40.625 48.1875 47.75 41.5 
Q 54.890625 34.8125 54.890625 23.390625 
Q 54.890625 11.625 47.5625 5.09375 
Q 40.234375 -1.421875 26.90625 -1.421875 
Q 22.3125 -1.421875 17.546875 -0.640625 
Q 12.796875 0.140625 7.71875 1.703125 
L 7.71875 11.625 
Q 12.109375 9.234375 16.796875 8.0625 
Q 21.484375 6.890625 26.703125 6.890625 
Q 35.15625 6.890625 40.078125 11.328125 
Q 45.015625 15.765625 45.015625 23.390625 
Q 45.015625 31 40.078125 35.4375 
Q 35.15625 39.890625 26.703125 39.890625 
Q 22.75 39.890625 18.8125 39.015625 
Q 14.890625 38.140625 10.796875 36.28125 
z
" id="DejaVuSans-53"/>
       </defs>
       <use transform="translate(0 0.684375)" xlink:href="#DejaVuSans-49"/>
       <use transform="translate(63.623047 0.684375)" xlink:href="#DejaVuSans-48"/>
       <use transform="translate(128.203125 38.965625)scale(0.7)" xlink:href="#DejaVuSans-53"/>
      </g>
     </g>
    </g>
    <g id="ytick_7">
     <g id="line2d_16">
      <defs>
       <path d="M 0 0 
L -2 0 
" id="m5eb05a31bb" style="stroke:#000000;stroke-width:0.6;"/>
      </defs>
      <g>
       <use style="stroke:#000000;stroke-width:0.6;" x="31.8" xlink:href="#m5eb05a31bb" y="238.117212"/>
      </g>
     </g>
    </g>
    <g id="ytick_8">
     <g id="line2d_17">
      <g>
       <use style="stroke:#000000;stroke-width:0.6;" x="31.8" xlink:href="#m5eb05a31bb" y="232.294626"/>
      </g>
     </g>
    </g>
    <g id="ytick_9">
     <g id="line2d_18">
      <g>
       <use style="stroke:#000000;stroke-width:0.6;" x="31.8" xlink:href="#m5eb05a31bb" y="228.163435"/>
      </g>
     </g>
    </g>
    <g id="ytick_10">
     <g id="line2d_19">
      <g>
       <use style="stroke:#000000;stroke-width:0.6;" x="31.8" xlink:href="#m5eb05a31bb" y="224.959034"/>
      </g>
     </g>
    </g>
    <g id="ytick_11">
     <g id="line2d_20">
      <g>
       <use style="stroke:#000000;stroke-width:0.6;" x="31.8" xlink:href="#m5eb05a31bb" y="222.340848"/>
      </g>
     </g>
    </g>
    <g id="ytick_12">
     <g id="line2d_21">
      <g>
       <use style="stroke:#000000;stroke-width:0.6;" x="31.8" xlink:href="#m5eb05a31bb" y="220.127204"/>
      </g>
     </g>
    </g>
    <g id="ytick_13">
     <g id="line2d_22">
      <g>
       <use style="stroke:#000000;stroke-width:0.6;" x="31.8" xlink:href="#m5eb05a31bb" y="218.209657"/>
      </g>
     </g>
    </g>
    <g id="ytick_14">
     <g id="line2d_23">
      <g>
       <use style="stroke:#000000;stroke-width:0.6;" x="31.8" xlink:href="#m5eb05a31bb" y="216.518262"/>
      </g>
     </g>
    </g>
    <g id="ytick_15">
     <g id="line2d_24">
      <g>
       <use style="stroke:#000000;stroke-width:0.6;" x="31.8" xlink:href="#m5eb05a31bb" y="205.051479"/>
      </g>
     </g>
    </g>
    <g id="ytick_16">
     <g id="line2d_25">
      <g>
       <use style="stroke:#000000;stroke-width:0.6;" x="31.8" xlink:href="#m5eb05a31bb" y="199.228893"/>
      </g>
     </g>
    </g>
    <g id="ytick_17">
     <g id="line2d_26">
      <g>
       <use style="stroke:#000000;stroke-width:0.6;" x="31.8" xlink:href="#m5eb05a31bb" y="195.097702"/>
      </g>
     </g>
    </g>
    <g id="ytick_18">
     <g id="line2d_27">
      <g>
       <use style="stroke:#000000;stroke-width:0.6;" x="31.8" xlink:href="#m5eb05a31bb" y="191.893301"/>
      </g>
     </g>
    </g>
    <g id="ytick_19">
     <g id="line2d_28">
      <g>
       <use style="stroke:#000000;stroke-width:0.6;" x="31.8" xlink:href="#m5eb05a31bb" y="189.275115"/>
      </g>
     </g>
    </g>
    <g id="ytick_20">
     <g id="line2d_29">
      <g>
       <use style="stroke:#000000;stroke-width:0.6;" x="31.8" xlink:href="#m5eb05a31bb" y="187.061471"/>
      </g>
     </g>
    </g>
    <g id="ytick_21">
     <g id="line2d_30">
      <g>
       <use style="stroke:#000000;stroke-width:0.6;" x="31.8" xlink:href="#m5eb05a31bb" y="185.143924"/>
      </g>
     </g>
    </g>
    <g id="ytick_22">
     <g id="line2d_31">
      <g>
       <use style="stroke:#000000;stroke-width:0.6;" x="31.8" xlink:href="#m5eb05a31bb" y="183.452529"/>
      </g>
     </g>
    </g>
    <g id="ytick_23">
     <g id="line2d_32">
      <g>
       <use style="stroke:#000000;stroke-width:0.6;" x="31.8" xlink:href="#m5eb05a31bb" y="171.985746"/>
      </g>
     </g>
    </g>
    <g id="ytick_24">
     <g id="line2d_33">
      <g>
       <use style="stroke:#000000;stroke-width:0.6;" x="31.8" xlink:href="#m5eb05a31bb" y="166.16316"/>
      </g>
     </g>
    </g>
    <g id="ytick_25">
     <g id="line2d_34">
      <g>
       <use style="stroke:#000000;stroke-width:0.6;" x="31.8" xlink:href="#m5eb05a31bb" y="162.031969"/>
      </g>
     </g>
    </g>
    <g id="ytick_26">
     <g id="line2d_35">
      <g>
       <use style="stroke:#000000;stroke-width:0.6;" x="31.8" xlink:href="#m5eb05a31bb" y="158.827568"/>
      </g>
     </g>
    </g>
    <g id="ytick_27">
     <g id="line2d_36">
      <g>
       <use style="stroke:#000000;stroke-width:0.6;" x="31.8" xlink:href="#m5eb05a31bb" y="156.209382"/>
      </g>
     </g>
    </g>
    <g id="ytick_28">
     <g id="line2d_37">
      <g>
       <use style="stroke:#000000;stroke-width:0.6;" x="31.8" xlink:href="#m5eb05a31bb" y="153.995738"/>
      </g>
     </g>
    </g>
    <g id="ytick_29">
     <g id="line2d_38">
      <g>
       <use style="stroke:#000000;stroke-width:0.6;" x="31.8" xlink:href="#m5eb05a31bb" y="152.078191"/>
      </g>
     </g>
    </g>
    <g id="ytick_30">
     <g id="line2d_39">
      <g>
       <use style="stroke:#000000;stroke-width:0.6;" x="31.8" xlink:href="#m5eb05a31bb" y="150.386796"/>
      </g>
     </g>
    </g>
    <g id="ytick_31">
     <g id="line2d_40">
      <g>
       <use style="stroke:#000000;stroke-width:0.6;" x="31.8" xlink:href="#m5eb05a31bb" y="138.920013"/>
      </g>
     </g>
    </g>
    <g id="ytick_32">
     <g id="line2d_41">
      <g>
       <use style="stroke:#000000;stroke-width:0.6;" x="31.8" xlink:href="#m5eb05a31bb" y="133.097427"/>
      </g>
     </g>
    </g>
    <g id="ytick_33">
     <g id="line2d_42">
      <g>
       <use style="stroke:#000000;stroke-width:0.6;" x="31.8" xlink:href="#m5eb05a31bb" y="128.966236"/>
      </g>
     </g>
    </g>
    <g id="ytick_34">
     <g id="line2d_43">
      <g>
       <use style="stroke:#000000;stroke-width:0.6;" x="31.8" xlink:href="#m5eb05a31bb" y="125.761835"/>
      </g>
     </g>
    </g>
    <g id="ytick_35">
     <g id="line2d_44">
      <g>
       <use style="stroke:#000000;stroke-width:0.6;" x="31.8" xlink:href="#m5eb05a31bb" y="123.143649"/>
      </g>
     </g>
    </g>
    <g id="ytick_36">
     <g id="line2d_45">
      <g>
       <use style="stroke:#000000;stroke-width:0.6;" x="31.8" xlink:href="#m5eb05a31bb" y="120.930005"/>
      </g>
     </g>
    </g>
    <g id="ytick_37">
     <g id="line2d_46">
      <g>
       <use style="stroke:#000000;stroke-width:0.6;" x="31.8" xlink:href="#m5eb05a31bb" y="119.012458"/>
      </g>
     </g>
    </g>
    <g id="ytick_38">
     <g id="line2d_47">
      <g>
       <use style="stroke:#000000;stroke-width:0.6;" x="31.8" xlink:href="#m5eb05a31bb" y="117.321063"/>
      </g>
     </g>
    </g>
    <g id="ytick_39">
     <g id="line2d_48">
      <g>
       <use style="stroke:#000000;stroke-width:0.6;" x="31.8" xlink:href="#m5eb05a31bb" y="105.85428"/>
      </g>
     </g>
    </g>
    <g id="ytick_40">
     <g id="line2d_49">
      <g>
       <use style="stroke:#000000;stroke-width:0.6;" x="31.8" xlink:href="#m5eb05a31bb" y="100.031694"/>
      </g>
     </g>
    </g>
    <g id="ytick_41">
     <g id="line2d_50">
      <g>
       <use style="stroke:#000000;stroke-width:0.6;" x="31.8" xlink:href="#m5eb05a31bb" y="95.900503"/>
      </g>
     </g>
    </g>
    <g id="ytick_42">
     <g id="line2d_51">
      <g>
       <use style="stroke:#000000;stroke-width:0.6;" x="31.8" xlink:href="#m5eb05a31bb" y="92.696102"/>
      </g>
     </g>
    </g>
    <g id="ytick_43">
     <g id="line2d_52">
      <g>
       <use style="stroke:#000000;stroke-width:0.6;" x="31.8" xlink:href="#m5eb05a31bb" y="90.077916"/>
      </g>
     </g>
    </g>
    <g id="ytick_44">
     <g id="line2d_53">
      <g>
       <use style="stroke:#000000;stroke-width:0.6;" x="31.8" xlink:href="#m5eb05a31bb" y="87.864272"/>
      </g>
     </g>
    </g>
    <g id="ytick_45">
     <g id="line2d_54">
      <g>
       <use style="stroke:#000000;stroke-width:0.6;" x="31.8" xlink:href="#m5eb05a31bb" y="85.946725"/>
      </g>
     </g>
    </g>
    <g id="ytick_46">
     <g id="line2d_55">
      <g>
       <use style="stroke:#000000;stroke-width:0.6;" x="31.8" xlink:href="#m5eb05a31bb" y="84.25533"/>
      </g>
     </g>
    </g>
    <g id="ytick_47">
     <g id="line2d_56">
      <g>
       <use style="stroke:#000000;stroke-width:0.6;" x="31.8" xlink:href="#m5eb05a31bb" y="72.788547"/>
      </g>
     </g>
    </g>
    <g id="ytick_48">
     <g id="line2d_57">
      <g>
       <use style="stroke:#000000;stroke-width:0.6;" x="31.8" xlink:href="#m5eb05a31bb" y="66.965961"/>
      </g>
     </g>
    </g>
    <g id="ytick_49">
     <g id="line2d_58">
      <g>
       <use style="stroke:#000000;stroke-width:0.6;" x="31.8" xlink:href="#m5eb05a31bb" y="62.83477"/>
      </g>
     </g>
    </g>
    <g id="ytick_50">
     <g id="line2d_59">
      <g>
       <use style="stroke:#000000;stroke-width:0.6;" x="31.8" xlink:href="#m5eb05a31bb" y="59.630369"/>
      </g>
     </g>
    </g>
    <g id="ytick_51">
     <g id="line2d_60">
      <g>
       <use style="stroke:#000000;stroke-width:0.6;" x="31.8" xlink:href="#m5eb05a31bb" y="57.012183"/>
      </g>
     </g>
    </g>
    <g id="ytick_52">
     <g id="line2d_61">
      <g>
       <use style="stroke:#000000;stroke-width:0.6;" x="31.8" xlink:href="#m5eb05a31bb" y="54.798539"/>
      </g>
     </g>
    </g>
    <g id="ytick_53">
     <g id="line2d_62">
      <g>
       <use style="stroke:#000000;stroke-width:0.6;" x="31.8" xlink:href="#m5eb05a31bb" y="52.880992"/>
      </g>
     </g>
    </g>
    <g id="ytick_54">
     <g id="line2d_63">
      <g>
       <use style="stroke:#000000;stroke-width:0.6;" x="31.8" xlink:href="#m5eb05a31bb" y="51.189597"/>
      </g>
     </g>
    </g>
    <g id="ytick_55">
     <g id="line2d_64">
      <g>
       <use style="stroke:#000000;stroke-width:0.6;" x="31.8" xlink:href="#m5eb05a31bb" y="39.722814"/>
      </g>
     </g>
    </g>
    <g id="ytick_56">
     <g id="line2d_65">
      <g>
       <use style="stroke:#000000;stroke-width:0.6;" x="31.8" xlink:href="#m5eb05a31bb" y="33.900228"/>
      </g>
     </g>
    </g>
    <g id="ytick_57">
     <g id="line2d_66">
      <g>
       <use style="stroke:#000000;stroke-width:0.6;" x="31.8" xlink:href="#m5eb05a31bb" y="29.769037"/>
      </g>
     </g>
    </g>
    <g id="ytick_58">
     <g id="line2d_67">
      <g>
       <use style="stroke:#000000;stroke-width:0.6;" x="31.8" xlink:href="#m5eb05a31bb" y="26.564636"/>
      </g>
     </g>
    </g>
    <g id="ytick_59">
     <g id="line2d_68">
      <g>
       <use style="stroke:#000000;stroke-width:0.6;" x="31.8" xlink:href="#m5eb05a31bb" y="23.94645"/>
      </g>
     </g>
    </g>
   </g>
   <g id="line2d_69">
    <path clip-path="url(#peae266434f)" d="M 73.304132 214.013388 
L 96.361983 207.09186 
L 119.419835 198.611988 
L 142.477686 189.300284 
L 165.535537 182.049951 
L 188.593388 171.140258 
L 211.65124 165.73887 
L 234.709091 152.024824 
L 257.766942 144.97042 
L 280.824793 135.288613 
L 303.882645 122.890964 
L 326.940496 112.988034 
L 349.998347 102.292278 
L 373.056198 90.852142 
L 396.11405 81.099812 
L 419.171901 69.017304 
" style="fill:none;stroke:#d9d9d9;stroke-dasharray:1.5,2.475;stroke-dashoffset:0;stroke-width:1.5;"/>
    <defs>
     <path d="M 0 1.5 
C 0.397805 1.5 0.77937 1.341951 1.06066 1.06066 
C 1.341951 0.77937 1.5 0.397805 1.5 0 
C 1.5 -0.397805 1.341951 -0.77937 1.06066 -1.06066 
C 0.77937 -1.341951 0.397805 -1.5 0 -1.5 
C -0.397805 -1.5 -0.77937 -1.341951 -1.06066 -1.06066 
C -1.341951 -0.77937 -1.5 -0.397805 -1.5 0 
C -1.5 0.397805 -1.341951 0.77937 -1.06066 1.06066 
C -0.77937 1.341951 -0.397805 1.5 0 1.5 
z
" id="mfcfc23cd03" style="stroke:#d9d9d9;"/>
    </defs>
    <g clip-path="url(#peae266434f)">
     <use style="fill:#d9d9d9;stroke:#d9d9d9;" x="73.304132" xlink:href="#mfcfc23cd03" y="214.013388"/>
     <use style="fill:#d9d9d9;stroke:#d9d9d9;" x="96.361983" xlink:href="#mfcfc23cd03" y="207.09186"/>
     <use style="fill:#d9d9d9;stroke:#d9d9d9;" x="119.419835" xlink:href="#mfcfc23cd03" y="198.611988"/>
     <use style="fill:#d9d9d9;stroke:#d9d9d9;" x="142.477686" xlink:href="#mfcfc23cd03" y="189.300284"/>
     <use style="fill:#d9d9d9;stroke:#d9d9d9;" x="165.535537" xlink:href="#mfcfc23cd03" y="182.049951"/>
     <use style="fill:#d9d9d9;stroke:#d9d9d9;" x="188.593388" xlink:href="#mfcfc23cd03" y="171.140258"/>
     <use style="fill:#d9d9d9;stroke:#d9d9d9;" x="211.65124" xlink:href="#mfcfc23cd03" y="165.73887"/>
     <use style="fill:#d9d9d9;stroke:#d9d9d9;" x="234.709091" xlink:href="#mfcfc23cd03" y="152.024824"/>
     <use style="fill:#d9d9d9;stroke:#d9d9d9;" x="257.766942" xlink:href="#mfcfc23cd03" y="144.97042"/>
     <use style="fill:#d9d9d9;stroke:#d9d9d9;" x="280.824793" xlink:href="#mfcfc23cd03" y="135.288613"/>
     <use style="fill:#d9d9d9;stroke:#d9d9d9;" x="303.882645" xlink:href="#mfcfc23cd03" y="122.890964"/>
     <use style="fill:#d9d9d9;stroke:#d9d9d9;" x="326.940496" xlink:href="#mfcfc23cd03" y="112.988034"/>
     <use style="fill:#d9d9d9;stroke:#d9d9d9;" x="349.998347" xlink:href="#mfcfc23cd03" y="102.292278"/>
     <use style="fill:#d9d9d9;stroke:#d9d9d9;" x="373.056198" xlink:href="#mfcfc23cd03" y="90.852142"/>
     <use style="fill:#d9d9d9;stroke:#d9d9d9;" x="396.11405" xlink:href="#mfcfc23cd03" y="81.099812"/>
     <use style="fill:#d9d9d9;stroke:#d9d9d9;" x="419.171901" xlink:href="#mfcfc23cd03" y="69.017304"/>
    </g>
   </g>
   <g id="line2d_70">
    <path clip-path="url(#peae266434f)" d="M 50.246281 193.621486 
L 73.304132 172.739869 
L 96.361983 165.46969 
L 119.419835 156.0182 
L 142.477686 147.535834 
L 165.535537 136.818538 
L 188.593388 125.505431 
L 211.65124 117.399035 
L 234.709091 107.97154 
L 257.766942 99.801186 
L 280.824793 91.362315 
L 303.882645 79.370566 
L 326.940496 70.32257 
L 349.998347 60.531172 
L 373.056198 50.869721 
L 396.11405 41.37386 
L 419.171901 32.201761 
" style="fill:none;stroke:#808080;stroke-dasharray:5.55,2.4;stroke-dashoffset:0;stroke-width:1.5;"/>
    <defs>
     <path d="M -1.5 -2.598076 
L -3 -0 
L -1.5 2.598076 
L 1.5 2.598076 
L 3 0 
L 1.5 -2.598076 
z
" id="m8f61062e31" style="stroke:#808080;stroke-linejoin:miter;"/>
    </defs>
    <g clip-path="url(#peae266434f)">
     <use style="fill:#ffffff;stroke:#808080;stroke-linejoin:miter;" x="50.246281" xlink:href="#m8f61062e31" y="193.621486"/>
     <use style="fill:#ffffff;stroke:#808080;stroke-linejoin:miter;" x="73.304132" xlink:href="#m8f61062e31" y="172.739869"/>
     <use style="fill:#ffffff;stroke:#808080;stroke-linejoin:miter;" x="96.361983" xlink:href="#m8f61062e31" y="165.46969"/>
     <use style="fill:#ffffff;stroke:#808080;stroke-linejoin:miter;" x="119.419835" xlink:href="#m8f61062e31" y="156.0182"/>
     <use style="fill:#ffffff;stroke:#808080;stroke-linejoin:miter;" x="142.477686" xlink:href="#m8f61062e31" y="147.535834"/>
     <use style="fill:#ffffff;stroke:#808080;stroke-linejoin:miter;" x="165.535537" xlink:href="#m8f61062e31" y="136.818538"/>
     <use style="fill:#ffffff;stroke:#808080;stroke-linejoin:miter;" x="188.593388" xlink:href="#m8f61062e31" y="125.505431"/>
     <use style="fill:#ffffff;stroke:#808080;stroke-linejoin:miter;" x="211.65124" xlink:href="#m8f61062e31" y="117.399035"/>
     <use style="fill:#ffffff;stroke:#808080;stroke-linejoin:miter;" x="234.709091" xlink:href="#m8f61062e31" y="107.97154"/>
     <use style="fill:#ffffff;stroke:#808080;stroke-linejoin:miter;" x="257.766942" xlink:href="#m8f61062e31" y="99.801186"/>
     <use style="fill:#ffffff;stroke:#808080;stroke-linejoin:miter;" x="280.824793" xlink:href="#m8f61062e31" y="91.362315"/>
     <use style="fill:#ffffff;stroke:#808080;stroke-linejoin:miter;" x="303.882645" xlink:href="#m8f61062e31" y="79.370566"/>
     <use style="fill:#ffffff;stroke:#808080;stroke-linejoin:miter;" x="326.940496" xlink:href="#m8f61062e31" y="70.32257"/>
     <use style="fill:#ffffff;stroke:#808080;stroke-linejoin:miter;" x="349.998347" xlink:href="#m8f61062e31" y="60.531172"/>
     <use style="fill:#ffffff;stroke:#808080;stroke-linejoin:miter;" x="373.056198" xlink:href="#m8f61062e31" y="50.869721"/>
     <use style="fill:#ffffff;stroke:#808080;stroke-linejoin:miter;" x="396.11405" xlink:href="#m8f61062e31" y="41.37386"/>
     <use style="fill:#ffffff;stroke:#808080;stroke-linejoin:miter;" x="419.171901" xlink:href="#m8f61062e31" y="32.201761"/>
    </g>
   </g>
   <g id="line2d_71">
    <path clip-path="url(#peae266434f)" d="M 50.246281 219.682956 
L 73.304132 201.953609 
L 96.361983 194.399275 
L 119.419835 186.420837 
L 142.477686 178.814824 
L 165.535537 170.520944 
L 188.593388 160.886536 
L 211.65124 152.916915 
L 234.709091 142.729871 
L 257.766942 133.64874 
L 280.824793 124.509962 
L 303.882645 113.735867 
L 326.940496 103.438178 
L 349.998347 92.884487 
L 373.056198 82.790277 
L 396.11405 71.717665 
L 419.171901 60.408539 
" style="fill:none;stroke:#808080;stroke-linecap:square;stroke-width:1.5;"/>
    <defs>
     <path d="M -0 4.242641 
L 4.242641 0 
L 0 -4.242641 
L -4.242641 -0 
z
" id="mc10d513de2" style="stroke:#808080;stroke-linejoin:miter;"/>
    </defs>
    <g clip-path="url(#peae266434f)">
     <use style="fill:#808080;stroke:#808080;stroke-linejoin:miter;" x="50.246281" xlink:href="#mc10d513de2" y="219.682956"/>
     <use style="fill:#808080;stroke:#808080;stroke-linejoin:miter;" x="73.304132" xlink:href="#mc10d513de2" y="201.953609"/>
     <use style="fill:#808080;stroke:#808080;stroke-linejoin:miter;" x="96.361983" xlink:href="#mc10d513de2" y="194.399275"/>
     <use style="fill:#808080;stroke:#808080;stroke-linejoin:miter;" x="119.419835" xlink:href="#mc10d513de2" y="186.420837"/>
     <use style="fill:#808080;stroke:#808080;stroke-linejoin:miter;" x="142.477686" xlink:href="#mc10d513de2" y="178.814824"/>
     <use style="fill:#808080;stroke:#808080;stroke-linejoin:miter;" x="165.535537" xlink:href="#mc10d513de2" y="170.520944"/>
     <use style="fill:#808080;stroke:#808080;stroke-linejoin:miter;" x="188.593388" xlink:href="#mc10d513de2" y="160.886536"/>
     <use style="fill:#808080;stroke:#808080;stroke-linejoin:miter;" x="211.65124" xlink:href="#mc10d513de2" y="152.916915"/>
     <use style="fill:#808080;stroke:#808080;stroke-linejoin:miter;" x="234.709091" xlink:href="#mc10d513de2" y="142.729871"/>
     <use style="fill:#808080;stroke:#808080;stroke-linejoin:miter;" x="257.766942" xlink:href="#mc10d513de2" y="133.64874"/>
     <use style="fill:#808080;stroke:#808080;stroke-linejoin:miter;" x="280.824793" xlink:href="#mc10d513de2" y="124.509962"/>
     <use style="fill:#808080;stroke:#808080;stroke-linejoin:miter;" x="303.882645" xlink:href="#mc10d513de2" y="113.735867"/>
     <use style="fill:#808080;stroke:#808080;stroke-linejoin:miter;" x="326.940496" xlink:href="#mc10d513de2" y="103.438178"/>
     <use style="fill:#808080;stroke:#808080;stroke-linejoin:miter;" x="349.998347" xlink:href="#mc10d513de2" y="92.884487"/>
     <use style="fill:#808080;stroke:#808080;stroke-linejoin:miter;" x="373.056198" xlink:href="#mc10d513de2" y="82.790277"/>
     <use style="fill:#808080;stroke:#808080;stroke-linejoin:miter;" x="396.11405" xlink:href="#mc10d513de2" y="71.717665"/>
     <use style="fill:#808080;stroke:#808080;stroke-linejoin:miter;" x="419.171901" xlink:href="#mc10d513de2" y="60.408539"/>
    </g>
   </g>
   <g id="line2d_72">
    <path clip-path="url(#peae266434f)" d="M 73.304132 220.565067 
L 96.361983 220.55295 
L 119.419835 220.204236 
L 142.477686 220.657082 
L 165.535537 220.332992 
L 188.593388 220.473838 
L 211.65124 220.487743 
L 234.709091 220.445166 
L 257.766942 220.452933 
L 280.824793 220.477456 
L 303.882645 220.520673 
L 326.940496 220.493136 
L 349.998347 220.546908 
L 373.056198 220.50605 
L 396.11405 220.427775 
L 419.171901 220.507794 
" style="fill:none;stroke:#b2d4eb;stroke-dasharray:1.5,2.475;stroke-dashoffset:0;stroke-width:1.5;"/>
    <defs>
     <path d="M 0 1.5 
C 0.397805 1.5 0.77937 1.341951 1.06066 1.06066 
C 1.341951 0.77937 1.5 0.397805 1.5 0 
C 1.5 -0.397805 1.341951 -0.77937 1.06066 -1.06066 
C 0.77937 -1.341951 0.397805 -1.5 0 -1.5 
C -0.397805 -1.5 -0.77937 -1.341951 -1.06066 -1.06066 
C -1.341951 -0.77937 -1.5 -0.397805 -1.5 0 
C -1.5 0.397805 -1.341951 0.77937 -1.06066 1.06066 
C -0.77937 1.341951 -0.397805 1.5 0 1.5 
z
" id="m7d5a888e95" style="stroke:#b2d4eb;"/>
    </defs>
    <g clip-path="url(#peae266434f)">
     <use style="fill:#b2d4eb;stroke:#b2d4eb;" x="73.304132" xlink:href="#m7d5a888e95" y="220.565067"/>
     <use style="fill:#b2d4eb;stroke:#b2d4eb;" x="96.361983" xlink:href="#m7d5a888e95" y="220.55295"/>
     <use style="fill:#b2d4eb;stroke:#b2d4eb;" x="119.419835" xlink:href="#m7d5a888e95" y="220.204236"/>
     <use style="fill:#b2d4eb;stroke:#b2d4eb;" x="142.477686" xlink:href="#m7d5a888e95" y="220.657082"/>
     <use style="fill:#b2d4eb;stroke:#b2d4eb;" x="165.535537" xlink:href="#m7d5a888e95" y="220.332992"/>
     <use style="fill:#b2d4eb;stroke:#b2d4eb;" x="188.593388" xlink:href="#m7d5a888e95" y="220.473838"/>
     <use style="fill:#b2d4eb;stroke:#b2d4eb;" x="211.65124" xlink:href="#m7d5a888e95" y="220.487743"/>
     <use style="fill:#b2d4eb;stroke:#b2d4eb;" x="234.709091" xlink:href="#m7d5a888e95" y="220.445166"/>
     <use style="fill:#b2d4eb;stroke:#b2d4eb;" x="257.766942" xlink:href="#m7d5a888e95" y="220.452933"/>
     <use style="fill:#b2d4eb;stroke:#b2d4eb;" x="280.824793" xlink:href="#m7d5a888e95" y="220.477456"/>
     <use style="fill:#b2d4eb;stroke:#b2d4eb;" x="303.882645" xlink:href="#m7d5a888e95" y="220.520673"/>
     <use style="fill:#b2d4eb;stroke:#b2d4eb;" x="326.940496" xlink:href="#m7d5a888e95" y="220.493136"/>
     <use style="fill:#b2d4eb;stroke:#b2d4eb;" x="349.998347" xlink:href="#m7d5a888e95" y="220.546908"/>
     <use style="fill:#b2d4eb;stroke:#b2d4eb;" x="373.056198" xlink:href="#m7d5a888e95" y="220.50605"/>
     <use style="fill:#b2d4eb;stroke:#b2d4eb;" x="396.11405" xlink:href="#m7d5a888e95" y="220.427775"/>
     <use style="fill:#b2d4eb;stroke:#b2d4eb;" x="419.171901" xlink:href="#m7d5a888e95" y="220.507794"/>
    </g>
   </g>
   <g id="line2d_73">
    <path clip-path="url(#peae266434f)" d="M 50.246281 203.537354 
L 73.304132 191.923896 
L 96.361983 191.256492 
L 119.419835 190.283097 
L 142.477686 222.739139 
L 165.535537 216.237552 
L 188.593388 211.839451 
L 211.65124 208.400572 
L 234.709091 222.436935 
L 257.766942 216.138571 
L 280.824793 211.513831 
L 303.882645 207.847748 
L 326.940496 205.742613 
L 349.998347 203.742489 
L 373.056198 222.416644 
L 396.11405 216.531064 
L 419.171901 212.109199 
" style="fill:none;stroke:#0071bc;stroke-dasharray:5.55,2.4;stroke-dashoffset:0;stroke-width:1.5;"/>
    <defs>
     <path d="M -1.5 -2.598076 
L -3 -0 
L -1.5 2.598076 
L 1.5 2.598076 
L 3 0 
L 1.5 -2.598076 
z
" id="m288271279a" style="stroke:#0071bc;stroke-linejoin:miter;"/>
    </defs>
    <g clip-path="url(#peae266434f)">
     <use style="fill:#ffffff;stroke:#0071bc;stroke-linejoin:miter;" x="50.246281" xlink:href="#m288271279a" y="203.537354"/>
     <use style="fill:#ffffff;stroke:#0071bc;stroke-linejoin:miter;" x="73.304132" xlink:href="#m288271279a" y="191.923896"/>
     <use style="fill:#ffffff;stroke:#0071bc;stroke-linejoin:miter;" x="96.361983" xlink:href="#m288271279a" y="191.256492"/>
     <use style="fill:#ffffff;stroke:#0071bc;stroke-linejoin:miter;" x="119.419835" xlink:href="#m288271279a" y="190.283097"/>
     <use style="fill:#ffffff;stroke:#0071bc;stroke-linejoin:miter;" x="142.477686" xlink:href="#m288271279a" y="222.739139"/>
     <use style="fill:#ffffff;stroke:#0071bc;stroke-linejoin:miter;" x="165.535537" xlink:href="#m288271279a" y="216.237552"/>
     <use style="fill:#ffffff;stroke:#0071bc;stroke-linejoin:miter;" x="188.593388" xlink:href="#m288271279a" y="211.839451"/>
     <use style="fill:#ffffff;stroke:#0071bc;stroke-linejoin:miter;" x="211.65124" xlink:href="#m288271279a" y="208.400572"/>
     <use style="fill:#ffffff;stroke:#0071bc;stroke-linejoin:miter;" x="234.709091" xlink:href="#m288271279a" y="222.436935"/>
     <use style="fill:#ffffff;stroke:#0071bc;stroke-linejoin:miter;" x="257.766942" xlink:href="#m288271279a" y="216.138571"/>
     <use style="fill:#ffffff;stroke:#0071bc;stroke-linejoin:miter;" x="280.824793" xlink:href="#m288271279a" y="211.513831"/>
     <use style="fill:#ffffff;stroke:#0071bc;stroke-linejoin:miter;" x="303.882645" xlink:href="#m288271279a" y="207.847748"/>
     <use style="fill:#ffffff;stroke:#0071bc;stroke-linejoin:miter;" x="326.940496" xlink:href="#m288271279a" y="205.742613"/>
     <use style="fill:#ffffff;stroke:#0071bc;stroke-linejoin:miter;" x="349.998347" xlink:href="#m288271279a" y="203.742489"/>
     <use style="fill:#ffffff;stroke:#0071bc;stroke-linejoin:miter;" x="373.056198" xlink:href="#m288271279a" y="222.416644"/>
     <use style="fill:#ffffff;stroke:#0071bc;stroke-linejoin:miter;" x="396.11405" xlink:href="#m288271279a" y="216.531064"/>
     <use style="fill:#ffffff;stroke:#0071bc;stroke-linejoin:miter;" x="419.171901" xlink:href="#m288271279a" y="212.109199"/>
    </g>
   </g>
   <g id="line2d_74">
    <path clip-path="url(#peae266434f)" d="M 50.246281 229.874489 
L 73.304132 210.153378 
L 96.361983 204.440653 
L 119.419835 200.305894 
L 142.477686 210.603004 
L 165.535537 204.702844 
L 188.593388 200.560923 
L 211.65124 197.363094 
L 234.709091 210.498855 
L 257.766942 204.677692 
L 280.824793 200.556243 
L 303.882645 197.360653 
L 326.940496 194.748091 
L 349.998347 192.542193 
L 373.056198 210.567393 
L 396.11405 204.707779 
L 419.171901 200.58163 
" style="fill:none;stroke:#0071bc;stroke-linecap:square;stroke-width:1.5;"/>
    <defs>
     <path d="M -0 4.242641 
L 4.242641 0 
L 0 -4.242641 
L -4.242641 -0 
z
" id="m5c1bfe0037" style="stroke:#0071bc;stroke-linejoin:miter;"/>
    </defs>
    <g clip-path="url(#peae266434f)">
     <use style="fill:#0071bc;stroke:#0071bc;stroke-linejoin:miter;" x="50.246281" xlink:href="#m5c1bfe0037" y="229.874489"/>
     <use style="fill:#0071bc;stroke:#0071bc;stroke-linejoin:miter;" x="73.304132" xlink:href="#m5c1bfe0037" y="210.153378"/>
     <use style="fill:#0071bc;stroke:#0071bc;stroke-linejoin:miter;" x="96.361983" xlink:href="#m5c1bfe0037" y="204.440653"/>
     <use style="fill:#0071bc;stroke:#0071bc;stroke-linejoin:miter;" x="119.419835" xlink:href="#m5c1bfe0037" y="200.305894"/>
     <use style="fill:#0071bc;stroke:#0071bc;stroke-linejoin:miter;" x="142.477686" xlink:href="#m5c1bfe0037" y="210.603004"/>
     <use style="fill:#0071bc;stroke:#0071bc;stroke-linejoin:miter;" x="165.535537" xlink:href="#m5c1bfe0037" y="204.702844"/>
     <use style="fill:#0071bc;stroke:#0071bc;stroke-linejoin:miter;" x="188.593388" xlink:href="#m5c1bfe0037" y="200.560923"/>
     <use style="fill:#0071bc;stroke:#0071bc;stroke-linejoin:miter;" x="211.65124" xlink:href="#m5c1bfe0037" y="197.363094"/>
     <use style="fill:#0071bc;stroke:#0071bc;stroke-linejoin:miter;" x="234.709091" xlink:href="#m5c1bfe0037" y="210.498855"/>
     <use style="fill:#0071bc;stroke:#0071bc;stroke-linejoin:miter;" x="257.766942" xlink:href="#m5c1bfe0037" y="204.677692"/>
     <use style="fill:#0071bc;stroke:#0071bc;stroke-linejoin:miter;" x="280.824793" xlink:href="#m5c1bfe0037" y="200.556243"/>
     <use style="fill:#0071bc;stroke:#0071bc;stroke-linejoin:miter;" x="303.882645" xlink:href="#m5c1bfe0037" y="197.360653"/>
     <use style="fill:#0071bc;stroke:#0071bc;stroke-linejoin:miter;" x="326.940496" xlink:href="#m5c1bfe0037" y="194.748091"/>
     <use style="fill:#0071bc;stroke:#0071bc;stroke-linejoin:miter;" x="349.998347" xlink:href="#m5c1bfe0037" y="192.542193"/>
     <use style="fill:#0071bc;stroke:#0071bc;stroke-linejoin:miter;" x="373.056198" xlink:href="#m5c1bfe0037" y="210.567393"/>
     <use style="fill:#0071bc;stroke:#0071bc;stroke-linejoin:miter;" x="396.11405" xlink:href="#m5c1bfe0037" y="204.707779"/>
     <use style="fill:#0071bc;stroke:#0071bc;stroke-linejoin:miter;" x="419.171901" xlink:href="#m5c1bfe0037" y="200.58163"/>
    </g>
   </g>
   <g id="patch_3">
    <path d="M 31.8 239.758125 
L 31.8 22.318125 
" style="fill:none;stroke:#000000;stroke-linecap:square;stroke-linejoin:miter;stroke-width:0.8;"/>
   </g>
   <g id="patch_4">
    <path d="M 437.618182 239.758125 
L 437.618182 22.318125 
" style="fill:none;stroke:#000000;stroke-linecap:square;stroke-linejoin:miter;stroke-width:0.8;"/>
   </g>
   <g id="patch_5">
    <path d="M 31.8 239.758125 
L 437.618182 239.758125 
" style="fill:none;stroke:#000000;stroke-linecap:square;stroke-linejoin:miter;stroke-width:0.8;"/>
   </g>
   <g id="patch_6">
    <path d="M 31.8 22.318125 
L 437.618182 22.318125 
" style="fill:none;stroke:#000000;stroke-linecap:square;stroke-linejoin:miter;stroke-width:0.8;"/>
   </g>
   <g id="text_17">
    <!-- PreResNet-50 (log) -->
    <g transform="translate(178.387841 16.318125)scale(0.12 -0.12)">
     <defs>
      <path d="M 19.671875 64.796875 
L 19.671875 37.40625 
L 32.078125 37.40625 
Q 38.96875 37.40625 42.71875 40.96875 
Q 46.484375 44.53125 46.484375 51.125 
Q 46.484375 57.671875 42.71875 61.234375 
Q 38.96875 64.796875 32.078125 64.796875 
z
M 9.8125 72.90625 
L 32.078125 72.90625 
Q 44.34375 72.90625 50.609375 67.359375 
Q 56.890625 61.8125 56.890625 51.125 
Q 56.890625 40.328125 50.609375 34.8125 
Q 44.34375 29.296875 32.078125 29.296875 
L 19.671875 29.296875 
L 19.671875 0 
L 9.8125 0 
z
" id="DejaVuSans-80"/>
      <path d="M 44.390625 34.1875 
Q 47.5625 33.109375 50.5625 29.59375 
Q 53.5625 26.078125 56.59375 19.921875 
L 66.609375 0 
L 56 0 
L 46.6875 18.703125 
Q 43.0625 26.03125 39.671875 28.421875 
Q 36.28125 30.8125 30.421875 30.8125 
L 19.671875 30.8125 
L 19.671875 0 
L 9.8125 0 
L 9.8125 72.90625 
L 32.078125 72.90625 
Q 44.578125 72.90625 50.734375 67.671875 
Q 56.890625 62.453125 56.890625 51.90625 
Q 56.890625 45.015625 53.6875 40.46875 
Q 50.484375 35.9375 44.390625 34.1875 
z
M 19.671875 64.796875 
L 19.671875 38.921875 
L 32.078125 38.921875 
Q 39.203125 38.921875 42.84375 42.21875 
Q 46.484375 45.515625 46.484375 51.90625 
Q 46.484375 58.296875 42.84375 61.546875 
Q 39.203125 64.796875 32.078125 64.796875 
z
" id="DejaVuSans-82"/>
      <path d="M 9.8125 72.90625 
L 23.09375 72.90625 
L 55.421875 11.921875 
L 55.421875 72.90625 
L 64.984375 72.90625 
L 64.984375 0 
L 51.703125 0 
L 19.390625 60.984375 
L 19.390625 0 
L 9.8125 0 
z
" id="DejaVuSans-78"/>
      <path d="M 18.3125 70.21875 
L 18.3125 54.6875 
L 36.8125 54.6875 
L 36.8125 47.703125 
L 18.3125 47.703125 
L 18.3125 18.015625 
Q 18.3125 11.328125 20.140625 9.421875 
Q 21.96875 7.515625 27.59375 7.515625 
L 36.8125 7.515625 
L 36.8125 0 
L 27.59375 0 
Q 17.1875 0 13.234375 3.875 
Q 9.28125 7.765625 9.28125 18.015625 
L 9.28125 47.703125 
L 2.6875 47.703125 
L 2.6875 54.6875 
L 9.28125 54.6875 
L 9.28125 70.21875 
z
" id="DejaVuSans-116"/>
      <path d="M 4.890625 31.390625 
L 31.203125 31.390625 
L 31.203125 23.390625 
L 4.890625 23.390625 
z
" id="DejaVuSans-45"/>
      <path d="M 31 75.875 
Q 24.46875 64.65625 21.28125 53.65625 
Q 18.109375 42.671875 18.109375 31.390625 
Q 18.109375 20.125 21.3125 9.0625 
Q 24.515625 -2 31 -13.1875 
L 23.1875 -13.1875 
Q 15.875 -1.703125 12.234375 9.375 
Q 8.59375 20.453125 8.59375 31.390625 
Q 8.59375 42.28125 12.203125 53.3125 
Q 15.828125 64.359375 23.1875 75.875 
z
" id="DejaVuSans-40"/>
      <path d="M 30.609375 48.390625 
Q 23.390625 48.390625 19.1875 42.75 
Q 14.984375 37.109375 14.984375 27.296875 
Q 14.984375 17.484375 19.15625 11.84375 
Q 23.34375 6.203125 30.609375 6.203125 
Q 37.796875 6.203125 41.984375 11.859375 
Q 46.1875 17.53125 46.1875 27.296875 
Q 46.1875 37.015625 41.984375 42.703125 
Q 37.796875 48.390625 30.609375 48.390625 
z
M 30.609375 56 
Q 42.328125 56 49.015625 48.375 
Q 55.71875 40.765625 55.71875 27.296875 
Q 55.71875 13.875 49.015625 6.21875 
Q 42.328125 -1.421875 30.609375 -1.421875 
Q 18.84375 -1.421875 12.171875 6.21875 
Q 5.515625 13.875 5.515625 27.296875 
Q 5.515625 40.765625 12.171875 48.375 
Q 18.84375 56 30.609375 56 
z
" id="DejaVuSans-111"/>
      <path d="M 45.40625 27.984375 
Q 45.40625 37.75 41.375 43.109375 
Q 37.359375 48.484375 30.078125 48.484375 
Q 22.859375 48.484375 18.828125 43.109375 
Q 14.796875 37.75 14.796875 27.984375 
Q 14.796875 18.265625 18.828125 12.890625 
Q 22.859375 7.515625 30.078125 7.515625 
Q 37.359375 7.515625 41.375 12.890625 
Q 45.40625 18.265625 45.40625 27.984375 
z
M 54.390625 6.78125 
Q 54.390625 -7.171875 48.1875 -13.984375 
Q 42 -20.796875 29.203125 -20.796875 
Q 24.46875 -20.796875 20.265625 -20.09375 
Q 16.0625 -19.390625 12.109375 -17.921875 
L 12.109375 -9.1875 
Q 16.0625 -11.328125 19.921875 -12.34375 
Q 23.78125 -13.375 27.78125 -13.375 
Q 36.625 -13.375 41.015625 -8.765625 
Q 45.40625 -4.15625 45.40625 5.171875 
L 45.40625 9.625 
Q 42.625 4.78125 38.28125 2.390625 
Q 33.9375 0 27.875 0 
Q 17.828125 0 11.671875 7.65625 
Q 5.515625 15.328125 5.515625 27.984375 
Q 5.515625 40.671875 11.671875 48.328125 
Q 17.828125 56 27.875 56 
Q 33.9375 56 38.28125 53.609375 
Q 42.625 51.21875 45.40625 46.390625 
L 45.40625 54.6875 
L 54.390625 54.6875 
z
" id="DejaVuSans-103"/>
      <path d="M 8.015625 75.875 
L 15.828125 75.875 
Q 23.140625 64.359375 26.78125 53.3125 
Q 30.421875 42.28125 30.421875 31.390625 
Q 30.421875 20.453125 26.78125 9.375 
Q 23.140625 -1.703125 15.828125 -13.1875 
L 8.015625 -13.1875 
Q 14.5 -2 17.703125 9.0625 
Q 20.90625 20.125 20.90625 31.390625 
Q 20.90625 42.671875 17.703125 53.65625 
Q 14.5 64.65625 8.015625 75.875 
z
" id="DejaVuSans-41"/>
     </defs>
     <use xlink:href="#DejaVuSans-80"/>
     <use x="58.552734" xlink:href="#DejaVuSans-114"/>
     <use x="97.416016" xlink:href="#DejaVuSans-101"/>
     <use x="158.939453" xlink:href="#DejaVuSans-82"/>
     <use x="223.921875" xlink:href="#DejaVuSans-101"/>
     <use x="285.445312" xlink:href="#DejaVuSans-115"/>
     <use x="337.544922" xlink:href="#DejaVuSans-78"/>
     <use x="412.349609" xlink:href="#DejaVuSans-101"/>
     <use x="473.873047" xlink:href="#DejaVuSans-116"/>
     <use x="513.082031" xlink:href="#DejaVuSans-45"/>
     <use x="549.166016" xlink:href="#DejaVuSans-53"/>
     <use x="612.789062" xlink:href="#DejaVuSans-48"/>
     <use x="676.412109" xlink:href="#DejaVuSans-32"/>
     <use x="708.199219" xlink:href="#DejaVuSans-40"/>
     <use x="747.212891" xlink:href="#DejaVuSans-108"/>
     <use x="774.996094" xlink:href="#DejaVuSans-111"/>
     <use x="836.177734" xlink:href="#DejaVuSans-103"/>
     <use x="899.654297" xlink:href="#DejaVuSans-41"/>
    </g>
   </g>
   <g id="legend_1">
    <g id="patch_7">
     <path d="M 38.8 126.29625 
L 124.3 126.29625 
Q 126.3 126.29625 126.3 124.29625 
L 126.3 29.318125 
Q 126.3 27.318125 124.3 27.318125 
L 38.8 27.318125 
Q 36.8 27.318125 36.8 29.318125 
L 36.8 124.29625 
Q 36.8 126.29625 38.8 126.29625 
z
" style="fill:#ffffff;opacity:0.8;stroke:#cccccc;stroke-linejoin:miter;"/>
    </g>
    <g id="line2d_75">
     <path d="M 40.8 36.918125 
L 60.8 36.918125 
" style="fill:none;stroke:#d9d9d9;stroke-dasharray:1.5,2.475;stroke-dashoffset:0;stroke-width:1.5;"/>
    </g>
    <g id="line2d_76">
     <g>
      <use style="fill:#d9d9d9;stroke:#d9d9d9;" x="50.8" xlink:href="#mfcfc23cd03" y="36.918125"/>
     </g>
    </g>
    <g id="text_18">
     <!-- $\sigma_f^2$ w/o BN -->
     <g transform="translate(68.8 40.418125)scale(0.1 -0.1)">
      <defs>
       <path d="M 34.671875 47.5625 
Q 27.25 47.5625 22.21875 42.1875 
Q 16.890625 36.578125 15.140625 27.296875 
Q 13.1875 17.484375 16.3125 11.8125 
Q 19.390625 6.203125 26.65625 6.203125 
Q 33.84375 6.203125 39.109375 11.859375 
Q 44.4375 17.53125 46.34375 27.296875 
Q 48.046875 36.234375 45.015625 42.1875 
Q 42.1875 47.5625 34.671875 47.5625 
z
M 36.078125 54.734375 
L 65.921875 54.6875 
L 64.15625 45.703125 
L 54.109375 45.703125 
Q 57.90625 38.09375 55.859375 27.296875 
Q 53.21875 13.875 45.0625 6.25 
Q 36.859375 -1.421875 25.140625 -1.421875 
Q 13.375 -1.421875 8.203125 6.25 
Q 3.03125 13.875 5.671875 27.296875 
Q 8.25 40.765625 16.40625 48.390625 
Q 23.1875 54.734375 36.078125 54.734375 
z
" id="DejaVuSans-Oblique-963"/>
       <path d="M 47.796875 75.984375 
L 46.390625 68.5 
L 37.796875 68.5 
Q 32.90625 68.5 30.6875 66.578125 
Q 28.46875 64.65625 27.390625 59.515625 
L 26.421875 54.6875 
L 41.21875 54.6875 
L 39.890625 47.703125 
L 25.09375 47.703125 
L 15.828125 0 
L 6.78125 0 
L 16.109375 47.703125 
L 7.515625 47.703125 
L 8.796875 54.6875 
L 17.390625 54.6875 
L 18.109375 58.5 
Q 19.96875 68.171875 24.625 72.078125 
Q 29.296875 75.984375 39.3125 75.984375 
z
" id="DejaVuSans-Oblique-102"/>
       <path d="M 4.203125 54.6875 
L 13.1875 54.6875 
L 24.421875 12.015625 
L 35.59375 54.6875 
L 46.1875 54.6875 
L 57.421875 12.015625 
L 68.609375 54.6875 
L 77.59375 54.6875 
L 63.28125 0 
L 52.6875 0 
L 40.921875 44.828125 
L 29.109375 0 
L 18.5 0 
z
" id="DejaVuSans-119"/>
       <path d="M 25.390625 72.90625 
L 33.6875 72.90625 
L 8.296875 -9.28125 
L 0 -9.28125 
z
" id="DejaVuSans-47"/>
       <path d="M 19.671875 34.8125 
L 19.671875 8.109375 
L 35.5 8.109375 
Q 43.453125 8.109375 47.28125 11.40625 
Q 51.125 14.703125 51.125 21.484375 
Q 51.125 28.328125 47.28125 31.5625 
Q 43.453125 34.8125 35.5 34.8125 
z
M 19.671875 64.796875 
L 19.671875 42.828125 
L 34.28125 42.828125 
Q 41.5 42.828125 45.03125 45.53125 
Q 48.578125 48.25 48.578125 53.8125 
Q 48.578125 59.328125 45.03125 62.0625 
Q 41.5 64.796875 34.28125 64.796875 
z
M 9.8125 72.90625 
L 35.015625 72.90625 
Q 46.296875 72.90625 52.390625 68.21875 
Q 58.5 63.53125 58.5 54.890625 
Q 58.5 48.1875 55.375 44.234375 
Q 52.25 40.28125 46.1875 39.3125 
Q 53.46875 37.75 57.5 32.78125 
Q 61.53125 27.828125 61.53125 20.40625 
Q 61.53125 10.640625 54.890625 5.3125 
Q 48.25 0 35.984375 0 
L 9.8125 0 
z
" id="DejaVuSans-66"/>
      </defs>
      <use transform="translate(0 0.701562)" xlink:href="#DejaVuSans-Oblique-963"/>
      <use transform="translate(67.851615 39.046875)scale(0.7)" xlink:href="#DejaVuSans-50"/>
      <use transform="translate(63.378906 -26.642188)scale(0.7)" xlink:href="#DejaVuSans-Oblique-102"/>
      <use transform="translate(115.122122 0.701562)" xlink:href="#DejaVuSans-32"/>
      <use transform="translate(146.909232 0.701562)" xlink:href="#DejaVuSans-119"/>
      <use transform="translate(228.696341 0.701562)" xlink:href="#DejaVuSans-47"/>
      <use transform="translate(262.387747 0.701562)" xlink:href="#DejaVuSans-111"/>
      <use transform="translate(323.569388 0.701562)" xlink:href="#DejaVuSans-32"/>
      <use transform="translate(355.356497 0.701562)" xlink:href="#DejaVuSans-66"/>
      <use transform="translate(423.960013 0.701562)" xlink:href="#DejaVuSans-78"/>
     </g>
    </g>
    <g id="line2d_77">
     <path d="M 40.8 53.818125 
L 60.8 53.818125 
" style="fill:none;stroke:#808080;stroke-dasharray:5.55,2.4;stroke-dashoffset:0;stroke-width:1.5;"/>
    </g>
    <g id="line2d_78">
     <g>
      <use style="fill:#ffffff;stroke:#808080;stroke-linejoin:miter;" x="50.8" xlink:href="#m8f61062e31" y="53.818125"/>
     </g>
    </g>
    <g id="text_19">
     <!-- $\mu^2$ w/o BN -->
     <g transform="translate(68.8 57.318125)scale(0.1 -0.1)">
      <defs>
       <path d="M -1.3125 -20.796875 
L 13.375 54.6875 
L 22.40625 54.6875 
L 15.765625 20.65625 
Q 15.578125 19.625 15.421875 18.359375 
Q 15.28125 17.09375 15.28125 15.828125 
Q 15.28125 11.28125 18.140625 8.828125 
Q 21 6.390625 26.3125 6.390625 
Q 33.546875 6.390625 37.984375 10.484375 
Q 42.4375 14.59375 44 22.796875 
L 50.203125 54.6875 
L 59.1875 54.6875 
L 51.03125 12.640625 
Q 50.828125 11.71875 50.75 11.03125 
Q 50.6875 10.359375 50.6875 9.8125 
Q 50.6875 8.296875 51.296875 7.59375 
Q 51.90625 6.890625 53.21875 6.890625 
Q 53.71875 6.890625 54.5625 7.125 
Q 55.421875 7.375 56.984375 8.015625 
L 55.609375 0.78125 
Q 53.46875 -0.296875 51.515625 -0.859375 
Q 49.5625 -1.421875 47.703125 -1.421875 
Q 44.484375 -1.421875 42.65625 0.625 
Q 40.828125 2.6875 40.828125 6.296875 
Q 38.09375 2.390625 34.296875 0.484375 
Q 30.515625 -1.421875 25.390625 -1.421875 
Q 20.84375 -1.421875 17.453125 0.671875 
Q 14.0625 2.78125 12.984375 6.203125 
L 7.71875 -20.796875 
z
" id="DejaVuSans-Oblique-956"/>
      </defs>
      <use transform="translate(0 0.765625)" xlink:href="#DejaVuSans-Oblique-956"/>
      <use transform="translate(68.089193 39.046875)scale(0.7)" xlink:href="#DejaVuSans-50"/>
      <use transform="translate(115.359701 0.765625)" xlink:href="#DejaVuSans-32"/>
      <use transform="translate(147.14681 0.765625)" xlink:href="#DejaVuSans-119"/>
      <use transform="translate(228.933919 0.765625)" xlink:href="#DejaVuSans-47"/>
      <use transform="translate(262.625326 0.765625)" xlink:href="#DejaVuSans-111"/>
      <use transform="translate(323.806966 0.765625)" xlink:href="#DejaVuSans-32"/>
      <use transform="translate(355.594076 0.765625)" xlink:href="#DejaVuSans-66"/>
      <use transform="translate(424.197591 0.765625)" xlink:href="#DejaVuSans-78"/>
     </g>
    </g>
    <g id="line2d_79">
     <path d="M 40.8 68.938437 
L 60.8 68.938437 
" style="fill:none;stroke:#808080;stroke-linecap:square;stroke-width:1.5;"/>
    </g>
    <g id="line2d_80">
     <g>
      <use style="fill:#808080;stroke:#808080;stroke-linejoin:miter;" x="50.8" xlink:href="#mc10d513de2" y="68.938437"/>
     </g>
    </g>
    <g id="text_20">
     <!-- $\sigma^2$ w/o BN -->
     <g transform="translate(68.8 72.438437)scale(0.1 -0.1)">
      <use transform="translate(0 0.765625)" xlink:href="#DejaVuSans-Oblique-963"/>
      <use transform="translate(67.851615 39.046875)scale(0.7)" xlink:href="#DejaVuSans-50"/>
      <use transform="translate(115.122122 0.765625)" xlink:href="#DejaVuSans-32"/>
      <use transform="translate(146.909232 0.765625)" xlink:href="#DejaVuSans-119"/>
      <use transform="translate(228.696341 0.765625)" xlink:href="#DejaVuSans-47"/>
      <use transform="translate(262.387747 0.765625)" xlink:href="#DejaVuSans-111"/>
      <use transform="translate(323.569388 0.765625)" xlink:href="#DejaVuSans-32"/>
      <use transform="translate(355.356497 0.765625)" xlink:href="#DejaVuSans-66"/>
      <use transform="translate(423.960013 0.765625)" xlink:href="#DejaVuSans-78"/>
     </g>
    </g>
    <g id="line2d_81">
     <path d="M 40.8 85.118125 
L 60.8 85.118125 
" style="fill:none;stroke:#b2d4eb;stroke-dasharray:1.5,2.475;stroke-dashoffset:0;stroke-width:1.5;"/>
    </g>
    <g id="line2d_82">
     <g>
      <use style="fill:#b2d4eb;stroke:#b2d4eb;" x="50.8" xlink:href="#m7d5a888e95" y="85.118125"/>
     </g>
    </g>
    <g id="text_21">
     <!-- $\sigma_f^2$ with BN -->
     <g transform="translate(68.8 88.618125)scale(0.1 -0.1)">
      <use transform="translate(0 0.701562)" xlink:href="#DejaVuSans-Oblique-963"/>
      <use transform="translate(67.851615 39.046875)scale(0.7)" xlink:href="#DejaVuSans-50"/>
      <use transform="translate(63.378906 -26.642188)scale(0.7)" xlink:href="#DejaVuSans-Oblique-102"/>
      <use transform="translate(115.122122 0.701562)" xlink:href="#DejaVuSans-32"/>
      <use transform="translate(146.909232 0.701562)" xlink:href="#DejaVuSans-119"/>
      <use transform="translate(228.696341 0.701562)" xlink:href="#DejaVuSans-105"/>
      <use transform="translate(256.479544 0.701562)" xlink:href="#DejaVuSans-116"/>
      <use transform="translate(295.688529 0.701562)" xlink:href="#DejaVuSans-104"/>
      <use transform="translate(359.067435 0.701562)" xlink:href="#DejaVuSans-32"/>
      <use transform="translate(390.854544 0.701562)" xlink:href="#DejaVuSans-66"/>
      <use transform="translate(459.45806 0.701562)" xlink:href="#DejaVuSans-78"/>
     </g>
    </g>
    <g id="line2d_83">
     <path d="M 40.8 102.018125 
L 60.8 102.018125 
" style="fill:none;stroke:#0071bc;stroke-dasharray:5.55,2.4;stroke-dashoffset:0;stroke-width:1.5;"/>
    </g>
    <g id="line2d_84">
     <g>
      <use style="fill:#ffffff;stroke:#0071bc;stroke-linejoin:miter;" x="50.8" xlink:href="#m288271279a" y="102.018125"/>
     </g>
    </g>
    <g id="text_22">
     <!-- $\mu^2$ with BN -->
     <g transform="translate(68.8 105.518125)scale(0.1 -0.1)">
      <use transform="translate(0 0.765625)" xlink:href="#DejaVuSans-Oblique-956"/>
      <use transform="translate(68.089193 39.046875)scale(0.7)" xlink:href="#DejaVuSans-50"/>
      <use transform="translate(115.359701 0.765625)" xlink:href="#DejaVuSans-32"/>
      <use transform="translate(147.14681 0.765625)" xlink:href="#DejaVuSans-119"/>
      <use transform="translate(228.933919 0.765625)" xlink:href="#DejaVuSans-105"/>
      <use transform="translate(256.717122 0.765625)" xlink:href="#DejaVuSans-116"/>
      <use transform="translate(295.926107 0.765625)" xlink:href="#DejaVuSans-104"/>
      <use transform="translate(359.305013 0.765625)" xlink:href="#DejaVuSans-32"/>
      <use transform="translate(391.092122 0.765625)" xlink:href="#DejaVuSans-66"/>
      <use transform="translate(459.695638 0.765625)" xlink:href="#DejaVuSans-78"/>
     </g>
    </g>
    <g id="line2d_85">
     <path d="M 40.8 116.716562 
L 60.8 116.716562 
" style="fill:none;stroke:#0071bc;stroke-linecap:square;stroke-width:1.5;"/>
    </g>
    <g id="line2d_86">
     <g>
      <use style="fill:#0071bc;stroke:#0071bc;stroke-linejoin:miter;" x="50.8" xlink:href="#m5c1bfe0037" y="116.716562"/>
     </g>
    </g>
    <g id="text_23">
     <!-- $\sigma^2$ with BN -->
     <g transform="translate(68.8 120.216562)scale(0.1 -0.1)">
      <use transform="translate(0 0.765625)" xlink:href="#DejaVuSans-Oblique-963"/>
      <use transform="translate(67.851615 39.046875)scale(0.7)" xlink:href="#DejaVuSans-50"/>
      <use transform="translate(115.122122 0.765625)" xlink:href="#DejaVuSans-32"/>
      <use transform="translate(146.909232 0.765625)" xlink:href="#DejaVuSans-119"/>
      <use transform="translate(228.696341 0.765625)" xlink:href="#DejaVuSans-105"/>
      <use transform="translate(256.479544 0.765625)" xlink:href="#DejaVuSans-116"/>
      <use transform="translate(295.688529 0.765625)" xlink:href="#DejaVuSans-104"/>
      <use transform="translate(359.067435 0.765625)" xlink:href="#DejaVuSans-32"/>
      <use transform="translate(390.854544 0.765625)" xlink:href="#DejaVuSans-66"/>
      <use transform="translate(459.45806 0.765625)" xlink:href="#DejaVuSans-78"/>
     </g>
    </g>
   </g>
  </g>
  <g id="axes_2">
   <g id="patch_8">
    <path d="M 518.781818 239.758125 
L 924.6 239.758125 
L 924.6 22.318125 
L 518.781818 22.318125 
z
" style="fill:#ffffff;"/>
   </g>
   <g id="matplotlib.axis_3">
    <g id="xtick_10">
     <g id="line2d_87">
      <g>
       <use style="stroke:#000000;stroke-width:0.8;" x="537.228099" xlink:href="#me451bd4977" y="239.758125"/>
      </g>
     </g>
     <g id="text_24">
      <!-- 0 -->
      <g transform="translate(534.046849 254.356562)scale(0.1 -0.1)">
       <use xlink:href="#DejaVuSans-48"/>
      </g>
     </g>
    </g>
    <g id="xtick_11">
     <g id="line2d_88">
      <g>
       <use style="stroke:#000000;stroke-width:0.8;" x="583.343802" xlink:href="#me451bd4977" y="239.758125"/>
      </g>
     </g>
     <g id="text_25">
      <!-- 2 -->
      <g transform="translate(580.162552 254.356562)scale(0.1 -0.1)">
       <use xlink:href="#DejaVuSans-50"/>
      </g>
     </g>
    </g>
    <g id="xtick_12">
     <g id="line2d_89">
      <g>
       <use style="stroke:#000000;stroke-width:0.8;" x="629.459504" xlink:href="#me451bd4977" y="239.758125"/>
      </g>
     </g>
     <g id="text_26">
      <!-- 4 -->
      <g transform="translate(626.278254 254.356562)scale(0.1 -0.1)">
       <use xlink:href="#DejaVuSans-52"/>
      </g>
     </g>
    </g>
    <g id="xtick_13">
     <g id="line2d_90">
      <g>
       <use style="stroke:#000000;stroke-width:0.8;" x="675.575207" xlink:href="#me451bd4977" y="239.758125"/>
      </g>
     </g>
     <g id="text_27">
      <!-- 6 -->
      <g transform="translate(672.393957 254.356562)scale(0.1 -0.1)">
       <use xlink:href="#DejaVuSans-54"/>
      </g>
     </g>
    </g>
    <g id="xtick_14">
     <g id="line2d_91">
      <g>
       <use style="stroke:#000000;stroke-width:0.8;" x="721.690909" xlink:href="#me451bd4977" y="239.758125"/>
      </g>
     </g>
     <g id="text_28">
      <!-- 8 -->
      <g transform="translate(718.509659 254.356562)scale(0.1 -0.1)">
       <use xlink:href="#DejaVuSans-56"/>
      </g>
     </g>
    </g>
    <g id="xtick_15">
     <g id="line2d_92">
      <g>
       <use style="stroke:#000000;stroke-width:0.8;" x="767.806612" xlink:href="#me451bd4977" y="239.758125"/>
      </g>
     </g>
     <g id="text_29">
      <!-- 10 -->
      <g transform="translate(761.444112 254.356562)scale(0.1 -0.1)">
       <use xlink:href="#DejaVuSans-49"/>
       <use x="63.623047" xlink:href="#DejaVuSans-48"/>
      </g>
     </g>
    </g>
    <g id="xtick_16">
     <g id="line2d_93">
      <g>
       <use style="stroke:#000000;stroke-width:0.8;" x="813.922314" xlink:href="#me451bd4977" y="239.758125"/>
      </g>
     </g>
     <g id="text_30">
      <!-- 12 -->
      <g transform="translate(807.559814 254.356562)scale(0.1 -0.1)">
       <use xlink:href="#DejaVuSans-49"/>
       <use x="63.623047" xlink:href="#DejaVuSans-50"/>
      </g>
     </g>
    </g>
    <g id="xtick_17">
     <g id="line2d_94">
      <g>
       <use style="stroke:#000000;stroke-width:0.8;" x="860.038017" xlink:href="#me451bd4977" y="239.758125"/>
      </g>
     </g>
     <g id="text_31">
      <!-- 14 -->
      <g transform="translate(853.675517 254.356562)scale(0.1 -0.1)">
       <use xlink:href="#DejaVuSans-49"/>
       <use x="63.623047" xlink:href="#DejaVuSans-52"/>
      </g>
     </g>
    </g>
    <g id="xtick_18">
     <g id="line2d_95">
      <g>
       <use style="stroke:#000000;stroke-width:0.8;" x="906.153719" xlink:href="#me451bd4977" y="239.758125"/>
      </g>
     </g>
     <g id="text_32">
      <!-- 16 -->
      <g transform="translate(899.791219 254.356562)scale(0.1 -0.1)">
       <use xlink:href="#DejaVuSans-49"/>
       <use x="63.623047" xlink:href="#DejaVuSans-54"/>
      </g>
     </g>
    </g>
    <g id="text_33">
     <!-- residual branch -->
     <g transform="translate(682.912003 268.034687)scale(0.1 -0.1)">
      <use xlink:href="#DejaVuSans-114"/>
      <use x="38.863281" xlink:href="#DejaVuSans-101"/>
      <use x="100.386719" xlink:href="#DejaVuSans-115"/>
      <use x="152.486328" xlink:href="#DejaVuSans-105"/>
      <use x="180.269531" xlink:href="#DejaVuSans-100"/>
      <use x="243.746094" xlink:href="#DejaVuSans-117"/>
      <use x="307.125" xlink:href="#DejaVuSans-97"/>
      <use x="368.404297" xlink:href="#DejaVuSans-108"/>
      <use x="396.1875" xlink:href="#DejaVuSans-32"/>
      <use x="427.974609" xlink:href="#DejaVuSans-98"/>
      <use x="491.451172" xlink:href="#DejaVuSans-114"/>
      <use x="532.564453" xlink:href="#DejaVuSans-97"/>
      <use x="593.84375" xlink:href="#DejaVuSans-110"/>
      <use x="657.222656" xlink:href="#DejaVuSans-99"/>
      <use x="712.203125" xlink:href="#DejaVuSans-104"/>
     </g>
    </g>
   </g>
   <g id="matplotlib.axis_4">
    <g id="ytick_60">
     <g id="line2d_96">
      <g>
       <use style="stroke:#000000;stroke-width:0.8;" x="518.781818" xlink:href="#m6949d40225" y="205.541053"/>
      </g>
     </g>
     <g id="text_34">
      <!-- 1 -->
      <g transform="translate(505.419318 209.340272)scale(0.1 -0.1)">
       <use xlink:href="#DejaVuSans-49"/>
      </g>
     </g>
    </g>
    <g id="ytick_61">
     <g id="line2d_97">
      <g>
       <use style="stroke:#000000;stroke-width:0.8;" x="518.781818" xlink:href="#m6949d40225" y="167.800835"/>
      </g>
     </g>
     <g id="text_35">
      <!-- 2 -->
      <g transform="translate(505.419318 171.600053)scale(0.1 -0.1)">
       <use xlink:href="#DejaVuSans-50"/>
      </g>
     </g>
    </g>
    <g id="ytick_62">
     <g id="line2d_98">
      <g>
       <use style="stroke:#000000;stroke-width:0.8;" x="518.781818" xlink:href="#m6949d40225" y="130.060616"/>
      </g>
     </g>
     <g id="text_36">
      <!-- 3 -->
      <g transform="translate(505.419318 133.859835)scale(0.1 -0.1)">
       <use xlink:href="#DejaVuSans-51"/>
      </g>
     </g>
    </g>
    <g id="ytick_63">
     <g id="line2d_99">
      <g>
       <use style="stroke:#000000;stroke-width:0.8;" x="518.781818" xlink:href="#m6949d40225" y="92.320397"/>
      </g>
     </g>
     <g id="text_37">
      <!-- 4 -->
      <g transform="translate(505.419318 96.119616)scale(0.1 -0.1)">
       <use xlink:href="#DejaVuSans-52"/>
      </g>
     </g>
    </g>
    <g id="ytick_64">
     <g id="line2d_100">
      <g>
       <use style="stroke:#000000;stroke-width:0.8;" x="518.781818" xlink:href="#m6949d40225" y="54.580179"/>
      </g>
     </g>
     <g id="text_38">
      <!-- 5 -->
      <g transform="translate(505.419318 58.379398)scale(0.1 -0.1)">
       <use xlink:href="#DejaVuSans-53"/>
      </g>
     </g>
    </g>
   </g>
   <g id="line2d_101">
    <path clip-path="url(#pbcfe9c60be)" d="M 560.28595 217.655451 
L 583.343802 217.627044 
L 606.401653 217.008929 
L 629.459504 217.819983 
L 652.517355 217.249098 
L 675.575207 217.498576 
L 698.633058 217.523149 
L 721.690909 217.441554 
L 744.74876 217.453096 
L 767.806612 217.509868 
L 790.864463 217.607136 
L 813.922314 217.521777 
L 836.980165 217.634936 
L 860.038017 217.535427 
L 883.095868 217.415183 
L 906.153719 217.556847 
" style="fill:none;stroke:#b2d4eb;stroke-dasharray:1.5,2.475;stroke-dashoffset:0;stroke-width:1.5;"/>
    <g clip-path="url(#pbcfe9c60be)">
     <use style="fill:#b2d4eb;stroke:#b2d4eb;" x="560.28595" xlink:href="#m7d5a888e95" y="217.655451"/>
     <use style="fill:#b2d4eb;stroke:#b2d4eb;" x="583.343802" xlink:href="#m7d5a888e95" y="217.627044"/>
     <use style="fill:#b2d4eb;stroke:#b2d4eb;" x="606.401653" xlink:href="#m7d5a888e95" y="217.008929"/>
     <use style="fill:#b2d4eb;stroke:#b2d4eb;" x="629.459504" xlink:href="#m7d5a888e95" y="217.819983"/>
     <use style="fill:#b2d4eb;stroke:#b2d4eb;" x="652.517355" xlink:href="#m7d5a888e95" y="217.249098"/>
     <use style="fill:#b2d4eb;stroke:#b2d4eb;" x="675.575207" xlink:href="#m7d5a888e95" y="217.498576"/>
     <use style="fill:#b2d4eb;stroke:#b2d4eb;" x="698.633058" xlink:href="#m7d5a888e95" y="217.523149"/>
     <use style="fill:#b2d4eb;stroke:#b2d4eb;" x="721.690909" xlink:href="#m7d5a888e95" y="217.441554"/>
     <use style="fill:#b2d4eb;stroke:#b2d4eb;" x="744.74876" xlink:href="#m7d5a888e95" y="217.453096"/>
     <use style="fill:#b2d4eb;stroke:#b2d4eb;" x="767.806612" xlink:href="#m7d5a888e95" y="217.509868"/>
     <use style="fill:#b2d4eb;stroke:#b2d4eb;" x="790.864463" xlink:href="#m7d5a888e95" y="217.607136"/>
     <use style="fill:#b2d4eb;stroke:#b2d4eb;" x="813.922314" xlink:href="#m7d5a888e95" y="217.521777"/>
     <use style="fill:#b2d4eb;stroke:#b2d4eb;" x="836.980165" xlink:href="#m7d5a888e95" y="217.634936"/>
     <use style="fill:#b2d4eb;stroke:#b2d4eb;" x="860.038017" xlink:href="#m7d5a888e95" y="217.535427"/>
     <use style="fill:#b2d4eb;stroke:#b2d4eb;" x="883.095868" xlink:href="#m7d5a888e95" y="217.415183"/>
     <use style="fill:#b2d4eb;stroke:#b2d4eb;" x="906.153719" xlink:href="#m7d5a888e95" y="217.556847"/>
    </g>
   </g>
   <g id="line2d_102">
    <path clip-path="url(#pbcfe9c60be)" d="M 537.228099 159.412163 
L 560.28595 55.000168 
L 583.343802 46.036751 
L 606.401653 32.201761 
L 629.459504 221.26114 
L 652.517355 208.643144 
L 675.575207 196.228767 
L 698.633058 183.501148 
L 721.690909 220.800615 
L 744.74876 208.421766 
L 767.806612 195.168194 
L 790.864463 181.174615 
L 813.922314 171.372497 
L 836.980165 160.624396 
L 860.038017 220.744312 
L 883.095868 209.337861 
L 906.153719 197.11472 
" style="fill:none;stroke:#0071bc;stroke-dasharray:5.55,2.4;stroke-dashoffset:0;stroke-width:1.5;"/>
    <g clip-path="url(#pbcfe9c60be)">
     <use style="fill:#ffffff;stroke:#0071bc;stroke-linejoin:miter;" x="537.228099" xlink:href="#m288271279a" y="159.412163"/>
     <use style="fill:#ffffff;stroke:#0071bc;stroke-linejoin:miter;" x="560.28595" xlink:href="#m288271279a" y="55.000168"/>
     <use style="fill:#ffffff;stroke:#0071bc;stroke-linejoin:miter;" x="583.343802" xlink:href="#m288271279a" y="46.036751"/>
     <use style="fill:#ffffff;stroke:#0071bc;stroke-linejoin:miter;" x="606.401653" xlink:href="#m288271279a" y="32.201761"/>
     <use style="fill:#ffffff;stroke:#0071bc;stroke-linejoin:miter;" x="629.459504" xlink:href="#m288271279a" y="221.26114"/>
     <use style="fill:#ffffff;stroke:#0071bc;stroke-linejoin:miter;" x="652.517355" xlink:href="#m288271279a" y="208.643144"/>
     <use style="fill:#ffffff;stroke:#0071bc;stroke-linejoin:miter;" x="675.575207" xlink:href="#m288271279a" y="196.228767"/>
     <use style="fill:#ffffff;stroke:#0071bc;stroke-linejoin:miter;" x="698.633058" xlink:href="#m288271279a" y="183.501148"/>
     <use style="fill:#ffffff;stroke:#0071bc;stroke-linejoin:miter;" x="721.690909" xlink:href="#m288271279a" y="220.800615"/>
     <use style="fill:#ffffff;stroke:#0071bc;stroke-linejoin:miter;" x="744.74876" xlink:href="#m288271279a" y="208.421766"/>
     <use style="fill:#ffffff;stroke:#0071bc;stroke-linejoin:miter;" x="767.806612" xlink:href="#m288271279a" y="195.168194"/>
     <use style="fill:#ffffff;stroke:#0071bc;stroke-linejoin:miter;" x="790.864463" xlink:href="#m288271279a" y="181.174615"/>
     <use style="fill:#ffffff;stroke:#0071bc;stroke-linejoin:miter;" x="813.922314" xlink:href="#m288271279a" y="171.372497"/>
     <use style="fill:#ffffff;stroke:#0071bc;stroke-linejoin:miter;" x="836.980165" xlink:href="#m288271279a" y="160.624396"/>
     <use style="fill:#ffffff;stroke:#0071bc;stroke-linejoin:miter;" x="860.038017" xlink:href="#m288271279a" y="220.744312"/>
     <use style="fill:#ffffff;stroke:#0071bc;stroke-linejoin:miter;" x="883.095868" xlink:href="#m288271279a" y="209.337861"/>
     <use style="fill:#ffffff;stroke:#0071bc;stroke-linejoin:miter;" x="906.153719" xlink:href="#m288271279a" y="197.11472"/>
    </g>
   </g>
   <g id="line2d_103">
    <path clip-path="url(#pbcfe9c60be)" d="M 537.228099 229.874489 
L 560.28595 190.358474 
L 583.343802 164.500865 
L 606.401653 138.2219 
L 629.459504 191.997031 
L 652.517355 165.951617 
L 675.575207 140.125106 
L 698.633058 114.372486 
L 721.690909 191.622562 
L 744.74876 165.805661 
L 767.806612 140.056001 
L 790.864463 114.365764 
L 813.922314 88.615412 
L 836.980165 62.921836 
L 860.038017 191.853014 
L 883.095868 165.99281 
L 906.153719 140.273752 
" style="fill:none;stroke:#0071bc;stroke-linecap:square;stroke-width:1.5;"/>
    <g clip-path="url(#pbcfe9c60be)">
     <use style="fill:#0071bc;stroke:#0071bc;stroke-linejoin:miter;" x="537.228099" xlink:href="#m5c1bfe0037" y="229.874489"/>
     <use style="fill:#0071bc;stroke:#0071bc;stroke-linejoin:miter;" x="560.28595" xlink:href="#m5c1bfe0037" y="190.358474"/>
     <use style="fill:#0071bc;stroke:#0071bc;stroke-linejoin:miter;" x="583.343802" xlink:href="#m5c1bfe0037" y="164.500865"/>
     <use style="fill:#0071bc;stroke:#0071bc;stroke-linejoin:miter;" x="606.401653" xlink:href="#m5c1bfe0037" y="138.2219"/>
     <use style="fill:#0071bc;stroke:#0071bc;stroke-linejoin:miter;" x="629.459504" xlink:href="#m5c1bfe0037" y="191.997031"/>
     <use style="fill:#0071bc;stroke:#0071bc;stroke-linejoin:miter;" x="652.517355" xlink:href="#m5c1bfe0037" y="165.951617"/>
     <use style="fill:#0071bc;stroke:#0071bc;stroke-linejoin:miter;" x="675.575207" xlink:href="#m5c1bfe0037" y="140.125106"/>
     <use style="fill:#0071bc;stroke:#0071bc;stroke-linejoin:miter;" x="698.633058" xlink:href="#m5c1bfe0037" y="114.372486"/>
     <use style="fill:#0071bc;stroke:#0071bc;stroke-linejoin:miter;" x="721.690909" xlink:href="#m5c1bfe0037" y="191.622562"/>
     <use style="fill:#0071bc;stroke:#0071bc;stroke-linejoin:miter;" x="744.74876" xlink:href="#m5c1bfe0037" y="165.805661"/>
     <use style="fill:#0071bc;stroke:#0071bc;stroke-linejoin:miter;" x="767.806612" xlink:href="#m5c1bfe0037" y="140.056001"/>
     <use style="fill:#0071bc;stroke:#0071bc;stroke-linejoin:miter;" x="790.864463" xlink:href="#m5c1bfe0037" y="114.365764"/>
     <use style="fill:#0071bc;stroke:#0071bc;stroke-linejoin:miter;" x="813.922314" xlink:href="#m5c1bfe0037" y="88.615412"/>
     <use style="fill:#0071bc;stroke:#0071bc;stroke-linejoin:miter;" x="836.980165" xlink:href="#m5c1bfe0037" y="62.921836"/>
     <use style="fill:#0071bc;stroke:#0071bc;stroke-linejoin:miter;" x="860.038017" xlink:href="#m5c1bfe0037" y="191.853014"/>
     <use style="fill:#0071bc;stroke:#0071bc;stroke-linejoin:miter;" x="883.095868" xlink:href="#m5c1bfe0037" y="165.99281"/>
     <use style="fill:#0071bc;stroke:#0071bc;stroke-linejoin:miter;" x="906.153719" xlink:href="#m5c1bfe0037" y="140.273752"/>
    </g>
   </g>
   <g id="patch_9">
    <path d="M 518.781818 239.758125 
L 518.781818 22.318125 
" style="fill:none;stroke:#000000;stroke-linecap:square;stroke-linejoin:miter;stroke-width:0.8;"/>
   </g>
   <g id="patch_10">
    <path d="M 924.6 239.758125 
L 924.6 22.318125 
" style="fill:none;stroke:#000000;stroke-linecap:square;stroke-linejoin:miter;stroke-width:0.8;"/>
   </g>
   <g id="patch_11">
    <path d="M 518.781818 239.758125 
L 924.6 239.758125 
" style="fill:none;stroke:#000000;stroke-linecap:square;stroke-linejoin:miter;stroke-width:0.8;"/>
   </g>
   <g id="patch_12">
    <path d="M 518.781818 22.318125 
L 924.6 22.318125 
" style="fill:none;stroke:#000000;stroke-linecap:square;stroke-linejoin:miter;stroke-width:0.8;"/>
   </g>
   <g id="text_39">
    <!-- PreResNet-50 (BN only) -->
    <g transform="translate(651.312784 16.318125)scale(0.12 -0.12)">
     <defs>
      <path d="M 32.171875 -5.078125 
Q 28.375 -14.84375 24.75 -17.8125 
Q 21.140625 -20.796875 15.09375 -20.796875 
L 7.90625 -20.796875 
L 7.90625 -13.28125 
L 13.1875 -13.28125 
Q 16.890625 -13.28125 18.9375 -11.515625 
Q 21 -9.765625 23.484375 -3.21875 
L 25.09375 0.875 
L 2.984375 54.6875 
L 12.5 54.6875 
L 29.59375 11.921875 
L 46.6875 54.6875 
L 56.203125 54.6875 
z
" id="DejaVuSans-121"/>
     </defs>
     <use xlink:href="#DejaVuSans-80"/>
     <use x="58.552734" xlink:href="#DejaVuSans-114"/>
     <use x="97.416016" xlink:href="#DejaVuSans-101"/>
     <use x="158.939453" xlink:href="#DejaVuSans-82"/>
     <use x="223.921875" xlink:href="#DejaVuSans-101"/>
     <use x="285.445312" xlink:href="#DejaVuSans-115"/>
     <use x="337.544922" xlink:href="#DejaVuSans-78"/>
     <use x="412.349609" xlink:href="#DejaVuSans-101"/>
     <use x="473.873047" xlink:href="#DejaVuSans-116"/>
     <use x="513.082031" xlink:href="#DejaVuSans-45"/>
     <use x="549.166016" xlink:href="#DejaVuSans-53"/>
     <use x="612.789062" xlink:href="#DejaVuSans-48"/>
     <use x="676.412109" xlink:href="#DejaVuSans-32"/>
     <use x="708.199219" xlink:href="#DejaVuSans-40"/>
     <use x="747.212891" xlink:href="#DejaVuSans-66"/>
     <use x="815.816406" xlink:href="#DejaVuSans-78"/>
     <use x="890.621094" xlink:href="#DejaVuSans-32"/>
     <use x="922.408203" xlink:href="#DejaVuSans-111"/>
     <use x="983.589844" xlink:href="#DejaVuSans-110"/>
     <use x="1046.96875" xlink:href="#DejaVuSans-108"/>
     <use x="1074.751953" xlink:href="#DejaVuSans-121"/>
     <use x="1133.931641" xlink:href="#DejaVuSans-41"/>
    </g>
   </g>
   <g id="legend_2">
    <g id="patch_13">
     <path d="M 678.940909 78.09625 
L 764.440909 78.09625 
Q 766.440909 78.09625 766.440909 76.09625 
L 766.440909 29.318125 
Q 766.440909 27.318125 764.440909 27.318125 
L 678.940909 27.318125 
Q 676.940909 27.318125 676.940909 29.318125 
L 676.940909 76.09625 
Q 676.940909 78.09625 678.940909 78.09625 
z
" style="fill:#ffffff;opacity:0.8;stroke:#cccccc;stroke-linejoin:miter;"/>
    </g>
    <g id="line2d_104">
     <path d="M 680.940909 36.918125 
L 700.940909 36.918125 
" style="fill:none;stroke:#b2d4eb;stroke-dasharray:1.5,2.475;stroke-dashoffset:0;stroke-width:1.5;"/>
    </g>
    <g id="line2d_105">
     <g>
      <use style="fill:#b2d4eb;stroke:#b2d4eb;" x="690.940909" xlink:href="#m7d5a888e95" y="36.918125"/>
     </g>
    </g>
    <g id="text_40">
     <!-- $\sigma_f^2$ with BN -->
     <g transform="translate(708.940909 40.418125)scale(0.1 -0.1)">
      <use transform="translate(0 0.701562)" xlink:href="#DejaVuSans-Oblique-963"/>
      <use transform="translate(67.851615 39.046875)scale(0.7)" xlink:href="#DejaVuSans-50"/>
      <use transform="translate(63.378906 -26.642188)scale(0.7)" xlink:href="#DejaVuSans-Oblique-102"/>
      <use transform="translate(115.122122 0.701562)" xlink:href="#DejaVuSans-32"/>
      <use transform="translate(146.909232 0.701562)" xlink:href="#DejaVuSans-119"/>
      <use transform="translate(228.696341 0.701562)" xlink:href="#DejaVuSans-105"/>
      <use transform="translate(256.479544 0.701562)" xlink:href="#DejaVuSans-116"/>
      <use transform="translate(295.688529 0.701562)" xlink:href="#DejaVuSans-104"/>
      <use transform="translate(359.067435 0.701562)" xlink:href="#DejaVuSans-32"/>
      <use transform="translate(390.854544 0.701562)" xlink:href="#DejaVuSans-66"/>
      <use transform="translate(459.45806 0.701562)" xlink:href="#DejaVuSans-78"/>
     </g>
    </g>
    <g id="line2d_106">
     <path d="M 680.940909 53.818125 
L 700.940909 53.818125 
" style="fill:none;stroke:#0071bc;stroke-dasharray:5.55,2.4;stroke-dashoffset:0;stroke-width:1.5;"/>
    </g>
    <g id="line2d_107">
     <g>
      <use style="fill:#ffffff;stroke:#0071bc;stroke-linejoin:miter;" x="690.940909" xlink:href="#m288271279a" y="53.818125"/>
     </g>
    </g>
    <g id="text_41">
     <!-- $\mu^2$ with BN -->
     <g transform="translate(708.940909 57.318125)scale(0.1 -0.1)">
      <use transform="translate(0 0.765625)" xlink:href="#DejaVuSans-Oblique-956"/>
      <use transform="translate(68.089193 39.046875)scale(0.7)" xlink:href="#DejaVuSans-50"/>
      <use transform="translate(115.359701 0.765625)" xlink:href="#DejaVuSans-32"/>
      <use transform="translate(147.14681 0.765625)" xlink:href="#DejaVuSans-119"/>
      <use transform="translate(228.933919 0.765625)" xlink:href="#DejaVuSans-105"/>
      <use transform="translate(256.717122 0.765625)" xlink:href="#DejaVuSans-116"/>
      <use transform="translate(295.926107 0.765625)" xlink:href="#DejaVuSans-104"/>
      <use transform="translate(359.305013 0.765625)" xlink:href="#DejaVuSans-32"/>
      <use transform="translate(391.092122 0.765625)" xlink:href="#DejaVuSans-66"/>
      <use transform="translate(459.695638 0.765625)" xlink:href="#DejaVuSans-78"/>
     </g>
    </g>
    <g id="line2d_108">
     <path d="M 680.940909 68.516562 
L 700.940909 68.516562 
" style="fill:none;stroke:#0071bc;stroke-linecap:square;stroke-width:1.5;"/>
    </g>
    <g id="line2d_109">
     <g>
      <use style="fill:#0071bc;stroke:#0071bc;stroke-linejoin:miter;" x="690.940909" xlink:href="#m5c1bfe0037" y="68.516562"/>
     </g>
    </g>
    <g id="text_42">
     <!-- $\sigma^2$ with BN -->
     <g transform="translate(708.940909 72.016562)scale(0.1 -0.1)">
      <use transform="translate(0 0.765625)" xlink:href="#DejaVuSans-Oblique-963"/>
      <use transform="translate(67.851615 39.046875)scale(0.7)" xlink:href="#DejaVuSans-50"/>
      <use transform="translate(115.122122 0.765625)" xlink:href="#DejaVuSans-32"/>
      <use transform="translate(146.909232 0.765625)" xlink:href="#DejaVuSans-119"/>
      <use transform="translate(228.696341 0.765625)" xlink:href="#DejaVuSans-105"/>
      <use transform="translate(256.479544 0.765625)" xlink:href="#DejaVuSans-116"/>
      <use transform="translate(295.688529 0.765625)" xlink:href="#DejaVuSans-104"/>
      <use transform="translate(359.067435 0.765625)" xlink:href="#DejaVuSans-32"/>
      <use transform="translate(390.854544 0.765625)" xlink:href="#DejaVuSans-66"/>
      <use transform="translate(459.45806 0.765625)" xlink:href="#DejaVuSans-78"/>
     </g>
    </g>
   </g>
  </g>
 </g>
 <defs>
  <clipPath id="peae266434f">
   <rect height="217.44" width="405.818182" x="31.8" y="22.318125"/>
  </clipPath>
  <clipPath id="pbcfe9c60be">
   <rect height="217.44" width="405.818182" x="518.781818" y="22.318125"/>
  </clipPath>
 </defs>
</svg>
